<?xml version="1.0" encoding="UTF-8" standalone="no"?>
<!-- Created with Inkscape (http://www.inkscape.org/) -->

<svg
   version="1.1"
   id="svg2"
   width="538.65332"
   height="521.44"
   viewBox="0 0 538.65332 521.44"
   sodipodi:docname="contact_edited.svg"
   inkscape:version="1.1 (c68e22c387, 2021-05-23)"
   xmlns:inkscape="http://www.inkscape.org/namespaces/inkscape"
   xmlns:sodipodi="http://sodipodi.sourceforge.net/DTD/sodipodi-0.dtd"
   xmlns="http://www.w3.org/2000/svg"
   xmlns:svg="http://www.w3.org/2000/svg">
  <defs
     id="defs6">
    <clipPath
       clipPathUnits="userSpaceOnUse"
       id="clipPath56">
      <path
         d="m 1823.09,3450.1 v 0 0 m 0,0 -90.55,71.89 48.57,41.29 c 0.14,-4.4 41.98,-113.18 41.98,-113.18 v 0"
         id="path54" />
    </clipPath>
  </defs>
  <sodipodi:namedview
     id="namedview4"
     pagecolor="#ffffff"
     bordercolor="#000000"
     borderopacity="0.25"
     inkscape:showpageshadow="2"
     inkscape:pageopacity="0.0"
     inkscape:pagecheckerboard="0"
     inkscape:deskcolor="#d1d1d1"
     inkscape:pageshadow="0"
     showgrid="false"
     inkscape:zoom="2.9878797"
     inkscape:cx="344.55872"
     inkscape:cy="310.4208"
     inkscape:window-width="2560"
     inkscape:window-height="1377"
     inkscape:window-x="-8"
     inkscape:window-y="-8"
     inkscape:window-maximized="1"
     inkscape:current-layer="g8" />
  <g
     id="g8"
     inkscape:groupmode="layer"
     inkscape:label="ink_ext_XXXXXX"
     transform="matrix(1.3333333,0,0,-1.3333333,0,521.44)">
    <path
       d="M 157.637,381.563 62.4406,257.905 318.45,321.545 175.859,386.148 c -6.401,2.9 -13.956,0.999 -18.222,-4.585"
       style="fill:#e7e8e5;fill-opacity:1;fill-rule:nonzero;stroke:none;stroke-width:0.1;opacity:1"
       id="path12" />
    <path
       d="m 169.6,386.98 c -4.418,0 -8.706,-2.023 -11.544,-5.737 l -0.001,-0.002 -94.273,-122.459 253.068,62.909 -141.208,63.976 c -1.956,0.886 -4.013,1.313 -6.042,1.313 M 61.1,257.028 157.219,381.885 c 4.44,5.812 12.194,7.76 18.858,4.744 L 320.051,321.399 61.1,257.028"
       style="fill:#dadbd8;fill-opacity:1;fill-rule:nonzero;stroke:none;stroke-width:0.1;opacity:1"
       id="path14" />
    <path
       d="M 346.145,169.562 110.024,110.866 c -5.738,-1.427 -11.5455,2.068 -12.9717,7.806 L 62.4406,257.905 319.339,321.766 353.95,182.534 c 1.427,-5.738 -2.068,-11.546 -7.805,-12.972"
       style="fill:#ededeb;fill-opacity:1;fill-rule:nonzero;stroke:none;stroke-width:0.1;opacity:1"
       id="path16" />
    <path
       d="m 303.523,314.142 -89,-90.933 -134.557,30.278 -15.3914,71.352 c -1.7723,7.656 2.9242,15.319 10.5512,17.216 L 269.726,390.43 c 7.716,1.918 15.525,-2.782 17.443,-10.498 l 16.354,-65.79"
       style="fill:#ffffff;fill-opacity:1;fill-rule:nonzero;stroke:none;stroke-width:0.1;opacity:1"
       id="path18" />
    <path
       d="M 202.304,230.363 96.6211,119.913 c 1.5699,-6.312 7.9599,-10.156 14.2719,-8.586 L 345.196,169.6 c 6.313,1.57 10.157,7.96 8.587,14.272 l -0.219,0.88 -138.195,48.728 c -4.59,1.618 -9.701,0.399 -13.065,-3.117"
       style="fill:#dadbd8;fill-opacity:1;fill-rule:nonzero;stroke:none;stroke-width:0.1;opacity:1"
       id="path20" />
    <path
       d="m 170.475,323.727 -76.1352,-18.936 -1.9347,7.777 76.1359,18.936 1.934,-7.777"
       style="fill:#eb038d;fill-opacity:1;fill-rule:nonzero;stroke:none;stroke-width:0.1;opacity:1"
       id="path22" />
    <path
       d="m 268.406,326.103 -168.9177,-42.012 -2.1836,8.78 168.9183,42.012 2.183,-8.78"
       style="fill:#dadbd8;fill-opacity:1;fill-rule:nonzero;stroke:none;stroke-width:0.1;opacity:1"
       id="path24" />
    <path
       d="m 273.744,304.641 -168.918,-42.012 -2.183,8.78 168.917,42.012 2.184,-8.78"
       style="fill:#dadbd8;fill-opacity:1;fill-rule:nonzero;stroke:none;stroke-width:0.1;opacity:1"
       id="path26" />
    <path
       d="m 275.12,285.01 -5.289,-5.292 -141.802,-37.073 -18.53,4.336 -0.7,2.01 168.371,41.875 0.723,-2.91 -2.773,-2.946"
       style="fill:#eb038d;fill-opacity:1;fill-rule:nonzero;stroke:none;stroke-width:0.1;opacity:1"
       id="path28" />
    <path
       d="m 238.849,248.062 -63.885,-15.888 -19.528,4.466 95.473,23.745 -12.06,-12.323"
       style="fill:#dadbd8;fill-opacity:1;fill-rule:nonzero;stroke:none;stroke-width:0.1;opacity:1"
       id="path30" />
    <path
       d="m 198.448,226.333 c 0.007,-0.006 -0.076,-0.106 -0.243,-0.295 -0.189,-0.208 -0.439,-0.481 -0.756,-0.83 -0.695,-0.744 -1.682,-1.802 -2.943,-3.151 -2.595,-2.747 -6.312,-6.678 -10.895,-11.527 -9.218,-9.715 -21.961,-23.127 -36.141,-37.841 -14.182,-14.72 -27.158,-27.914 -36.639,-37.374 -4.738,-4.732 -8.591,-8.542 -11.274,-11.155 -1.3257,-1.287 -2.3636,-2.294 -3.0945,-3.003 -0.3422,-0.324 -0.6109,-0.578 -0.8152,-0.771 -0.1856,-0.172 -0.284,-0.256 -0.2903,-0.249 -0.007,0.006 0.0785,0.104 0.2508,0.289 0.1945,0.202 0.4512,0.47 0.7766,0.809 0.7136,0.727 1.7277,1.759 3.0222,3.076 2.6554,2.686 6.4584,6.534 11.1494,11.278 9.409,9.529 22.338,22.763 36.518,37.482 14.149,14.722 26.958,28.051 36.256,37.728 4.636,4.798 8.396,8.688 11.021,11.405 1.293,1.32 2.305,2.353 3.018,3.081 0.334,0.332 0.596,0.594 0.795,0.792 0.182,0.176 0.278,0.263 0.284,0.256"
       style="fill:#fafaf9;fill-opacity:1;fill-rule:nonzero;stroke:none;stroke-width:0.1;opacity:1"
       id="path32" />
    <path
       d="m 353.563,184.752 c -0.05,-0.143 -29.52,10.086 -65.815,22.844 -36.308,12.762 -65.69,23.221 -65.64,23.364 0.05,0.143 29.515,-10.083 65.822,-22.846 36.295,-12.758 65.683,-23.219 65.633,-23.362"
       style="fill:#fafaf9;fill-opacity:1;fill-rule:nonzero;stroke:none;stroke-width:0.1;opacity:1"
       id="path34" />
    <path
       d="m 307.759,318.52 c 0.007,-0.007 -0.059,-0.091 -0.194,-0.25 -0.156,-0.179 -0.356,-0.408 -0.606,-0.693 -0.568,-0.631 -1.363,-1.512 -2.373,-2.632 -2.11,-2.294 -5.119,-5.562 -8.825,-9.589 -7.486,-8.066 -17.91,-19.132 -29.587,-31.197 -11.682,-12.068 -22.407,-22.844 -30.233,-30.582 -3.908,-3.829 -7.081,-6.938 -9.307,-9.119 -1.089,-1.044 -1.945,-1.865 -2.558,-2.453 -0.277,-0.259 -0.5,-0.465 -0.674,-0.628 -0.154,-0.139 -0.237,-0.207 -0.243,-0.2 -0.007,0.006 0.063,0.088 0.203,0.24 0.165,0.173 0.374,0.392 0.637,0.667 0.595,0.605 1.427,1.451 2.484,2.526 2.197,2.211 5.327,5.361 9.184,9.243 7.754,7.806 18.434,18.623 30.112,30.688 11.674,12.062 22.141,23.084 29.698,31.08 3.759,3.977 6.811,7.204 8.953,9.469 1.042,1.09 1.861,1.948 2.448,2.562 0.266,0.27 0.479,0.487 0.646,0.657 0.149,0.146 0.228,0.217 0.235,0.211"
       style="fill:#fafaf9;fill-opacity:1;fill-rule:nonzero;stroke:none;stroke-width:0.1;opacity:1"
       id="path36" />
    <path
       d="m 198.448,226.333 c -0.002,-0.008 -0.122,0.013 -0.356,0.063 -0.26,0.061 -0.601,0.14 -1.031,0.239 -0.937,0.229 -2.262,0.554 -3.952,0.967 -3.426,0.86 -8.395,2.062 -14.543,3.509 -12.293,2.91 -29.337,6.658 -48.176,10.739 -18.847,4.082 -35.8853,7.892 -48.1591,10.9 -6.1383,1.496 -11.0942,2.756 -14.5047,3.68 -1.6789,0.456 -2.9953,0.814 -3.9258,1.067 -0.425,0.122 -0.7609,0.217 -1.0176,0.291 -0.2285,0.068 -0.3445,0.108 -0.3418,0.117 0.0024,0.009 0.1231,-0.012 0.3563,-0.063 0.2601,-0.06 0.6007,-0.139 1.0308,-0.238 0.9371,-0.23 2.2617,-0.554 3.9512,-0.967 3.4258,-0.86 8.3941,-2.062 14.5426,-3.509 12.2922,-2.91 29.3381,-6.658 48.1841,-10.741 18.84,-4.081 35.877,-7.89 48.151,-10.898 6.138,-1.496 11.094,-2.756 14.506,-3.68 1.679,-0.456 2.995,-0.814 3.926,-1.067 0.425,-0.122 0.761,-0.218 1.018,-0.291 0.228,-0.069 0.344,-0.108 0.341,-0.118"
       style="fill:#fafaf9;fill-opacity:1;fill-rule:nonzero;stroke:none;stroke-width:0.1;opacity:1"
       id="path38" />
    <path
       d="m 303.523,314.142 c 0,0 -0.099,0.324 -0.267,0.962 -0.169,0.651 -0.413,1.597 -0.733,2.834 -0.635,2.507 -1.567,6.181 -2.765,10.909 -2.381,9.493 -5.821,23.207 -10.071,40.149 -0.53,2.12 -1.072,4.29 -1.627,6.508 -0.277,1.109 -0.557,2.23 -0.84,3.363 -0.14,0.569 -0.28,1.14 -0.459,1.69 -0.148,0.564 -0.371,1.104 -0.607,1.643 -0.918,2.167 -2.49,4.077 -4.416,5.568 -1.96,1.437 -4.316,2.477 -6.836,2.744 -1.253,0.188 -2.538,0.103 -3.809,-0.051 -1.259,-0.218 -2.539,-0.57 -3.827,-0.886 -2.576,-0.642 -5.192,-1.295 -7.847,-1.957 -5.312,-1.324 -10.776,-2.687 -16.382,-4.084 -22.423,-5.581 -47.072,-11.716 -72.946,-18.156 -25.886,-6.427 -50.545,-12.549 -72.9742,-18.118 -5.6074,-1.39 -11.0758,-2.746 -16.3887,-4.062 -1.3289,-0.329 -2.6472,-0.656 -3.9558,-0.98 -1.3098,-0.339 -2.611,-0.602 -3.7969,-1.153 -1.2,-0.511 -2.3242,-1.183 -3.3098,-2.007 -1.0125,-0.794 -1.8699,-1.755 -2.607,-2.778 -0.7625,-1.014 -1.2934,-2.163 -1.7582,-3.311 -0.4098,-1.172 -0.7059,-2.376 -0.8098,-3.594 -0.2929,-2.448 0.3809,-4.803 0.8625,-7.139 0.9992,-4.663 1.9594,-9.14 2.875,-13.412 3.6473,-17.082 6.5989,-30.908 8.6422,-40.479 1.007,-4.772 1.7895,-8.48 2.3231,-11.011 0.2574,-1.251 0.4546,-2.207 0.5902,-2.866 0.1301,-0.647 0.1824,-0.981 0.1824,-0.981 0,0 -0.089,0.326 -0.2375,0.969 -0.148,0.656 -0.3629,1.609 -0.6437,2.854 -0.5571,2.526 -1.3731,6.227 -2.4231,10.99 -2.0836,9.561 -5.0937,23.374 -8.8133,40.44 -0.9265,4.27 -1.8976,8.743 -2.9093,13.403 -0.4805,2.307 -1.1832,4.744 -0.8868,7.272 0.1043,1.256 0.4067,2.499 0.827,3.709 0.4766,1.186 1.0234,2.372 1.8078,3.419 0.7586,1.058 1.6426,2.052 2.6859,2.874 1.0172,0.853 2.1766,1.549 3.4161,2.079 1.2285,0.573 2.575,0.848 3.8679,1.184 1.3082,0.327 2.6266,0.656 3.9543,0.987 5.3114,1.324 10.7774,2.687 16.3832,4.085 22.4265,5.581 47.0815,11.718 72.9645,18.159 25.877,6.425 50.53,12.546 72.956,18.114 5.607,1.39 11.074,2.745 16.387,4.062 2.656,0.658 5.273,1.306 7.85,1.945 1.291,0.314 2.553,0.66 3.871,0.887 1.314,0.158 2.64,0.24 3.934,0.045 2.6,-0.281 5.029,-1.357 7.047,-2.845 1.982,-1.54 3.597,-3.514 4.539,-5.748 0.24,-0.556 0.469,-1.112 0.619,-1.693 0.186,-0.574 0.323,-1.144 0.461,-1.71 0.28,-1.134 0.558,-2.256 0.832,-3.366 0.549,-2.22 1.085,-4.391 1.609,-6.512 4.178,-16.96 7.56,-30.688 9.902,-40.191 1.154,-4.739 2.051,-8.422 2.665,-10.935 0.296,-1.242 0.523,-2.192 0.679,-2.847 0.15,-0.642 0.213,-0.975 0.213,-0.975"
       style="fill:#dadbd8;fill-opacity:1;fill-rule:nonzero;stroke:none;stroke-width:0.1;opacity:1"
       id="path40" />
    <path
       d="M 0,0.569922 H 403.989"
       style="fill:#17282f;fill-opacity:1;fill-rule:nonzero;stroke:none;stroke-width:0.1;opacity:1"
       id="path42" />
    <path
       d="m 403.989,0.569922 c 0,-0.151953 -90.443,-0.275 -201.985,-0.275 C 90.4238,0.294922 0,0.417969 0,0.569922 c 0,0.151953 90.4238,0.275 202.004,0.275 111.542,0 201.985,-0.123047 201.985,-0.275"
       style="fill:#000000;fill-opacity:1;fill-rule:nonzero;stroke:none;stroke-width:0.1;opacity:1"
       id="path44" />
    <path
       d="m 191.712,366.919 -9.884,-7.529 0.481,-14.38 -9.055,7.189 -4.998,-4.28 -19.001,23.456 42.457,-4.456"
       style="fill:#eb038d;fill-opacity:1.0;fill-rule:nonzero;stroke:none;stroke-width:0.1;opacity:1"
       id="path46" />
    <path
       d="m 178.111,356.328 c 0.014,-0.44 4.198,-11.318 4.198,-11.318 l -9.055,7.189 4.857,4.129"
       style="fill:#f03d5f;fill-opacity:1;fill-rule:nonzero;stroke:none;stroke-width:0.1;opacity:1"
       id="path48" />
    <g
       id="g50"
       transform="scale(0.1)"
       style="opacity:1">
      <g
         id="g52"
         clip-path="url(#clipPath56)">
        <path
           d="m 1732.54,3450.1 h 90.5508 v 113.18 H 1732.54 Z"
           style="fill:#eb038d;fill-opacity:1.0;fill-rule:nonzero;stroke:none"
           id="path58" />
      </g>
    </g>
    <path
       d="m 149.255,371.375 28.856,-15.047 4.198,-11.318 -0.481,14.38 -32.573,11.985"
       style="fill:#f03d5f;fill-opacity:1;fill-rule:nonzero;stroke:none;stroke-width:0.1;opacity:1"
       id="path60" />
    <path
       d="m 182.309,345.01 -4.198,11.318 -28.856,15.047 32.573,-11.985 0.481,-14.38"
       style="fill:#eb038d;fill-opacity:1;fill-rule:nonzero;stroke:none;stroke-width:0.1;opacity:1"
       id="path62" />
    <path
       d="m 229.253,177.356 c -0.035,-0.147 -1.212,0.014 -2.627,0.36 -1.416,0.345 -2.534,0.745 -2.498,0.893 0.036,0.147 1.213,-0.014 2.628,-0.36 1.415,-0.346 2.533,-0.746 2.497,-0.893"
       style="fill:#17282f;fill-opacity:1;fill-rule:nonzero;stroke:none;stroke-width:0.1;opacity:1"
       id="path64" />
    <path
       d="m 237.436,175.356 c -0.036,-0.147 -0.75,-0.099 -1.594,0.107 -0.844,0.206 -1.499,0.493 -1.463,0.64 0.036,0.148 0.749,0.1 1.594,-0.107 0.843,-0.206 1.499,-0.493 1.463,-0.64"
       style="fill:#17282f;fill-opacity:1;fill-rule:nonzero;stroke:none;stroke-width:0.1;opacity:1"
       id="path66" />
    <path
       d="m 203.68,346.893 c -0.045,-0.148 -1.203,0.078 -2.613,0.404 -1.409,0.329 -2.549,0.635 -2.525,0.787 0.024,0.148 1.219,0.082 2.649,-0.252 1.431,-0.33 2.533,-0.797 2.489,-0.939"
       style="fill:#17282f;fill-opacity:1;fill-rule:nonzero;stroke:none;stroke-width:0.1;opacity:1"
       id="path68" />
    <path
       d="m 213.356,342.741 c -0.079,-0.133 -1.151,0.359 -2.445,1.005 -1.294,0.649 -2.33,1.215 -2.27,1.357 0.057,0.138 1.204,-0.207 2.516,-0.866 1.313,-0.656 2.276,-1.368 2.199,-1.496"
       style="fill:#17282f;fill-opacity:1;fill-rule:nonzero;stroke:none;stroke-width:0.1;opacity:1"
       id="path70" />
    <path
       d="m 221.747,336.377 c -0.109,-0.108 -1.024,0.637 -2.121,1.582 -1.096,0.946 -1.967,1.743 -1.875,1.867 0.089,0.12 1.12,-0.49 2.233,-1.451 1.116,-0.96 1.869,-1.893 1.763,-1.998"
       style="fill:#17282f;fill-opacity:1;fill-rule:nonzero;stroke:none;stroke-width:0.1;opacity:1"
       id="path72" />
    <path
       d="m 228.144,328.028 c -0.134,-0.074 -0.802,0.898 -1.599,2.103 -0.794,1.207 -1.423,2.204 -1.302,2.299 0.117,0.093 0.952,-0.768 1.761,-1.997 0.811,-1.227 1.272,-2.335 1.14,-2.405"
       style="fill:#17282f;fill-opacity:1;fill-rule:nonzero;stroke:none;stroke-width:0.1;opacity:1"
       id="path74" />
    <path
       d="m 231.778,318.162 c -0.152,-0.029 -0.492,1.1 -0.887,2.489 -0.392,1.39 -0.694,2.529 -0.549,2.584 0.138,0.054 0.678,-1.018 1.078,-2.435 0.401,-1.415 0.505,-2.611 0.358,-2.638"
       style="fill:#17282f;fill-opacity:1;fill-rule:nonzero;stroke:none;stroke-width:0.1;opacity:1"
       id="path76" />
    <path
       d="m 232.315,307.661 c -0.154,0.017 -0.143,1.195 -0.111,2.639 0.036,1.444 0.084,2.622 0.238,2.632 0.149,0.01 0.348,-1.174 0.312,-2.645 -0.033,-1.471 -0.291,-2.644 -0.439,-2.626"
       style="fill:#17282f;fill-opacity:1;fill-rule:nonzero;stroke:none;stroke-width:0.1;opacity:1"
       id="path78" />
    <path
       d="m 229.581,297.516 c -0.14,0.066 0.256,1.175 0.742,2.533 0.491,1.358 0.897,2.464 1.047,2.425 0.144,-0.036 -0.029,-1.224 -0.529,-2.611 -0.498,-1.386 -1.126,-2.412 -1.26,-2.347"
       style="fill:#17282f;fill-opacity:1;fill-rule:nonzero;stroke:none;stroke-width:0.1;opacity:1"
       id="path80" />
    <path
       d="m 223.478,288.982 c -0.105,0.114 0.677,0.994 1.624,2.08 0.95,1.084 1.713,1.979 1.84,1.891 0.123,-0.083 -0.453,-1.142 -1.426,-2.252 -0.97,-1.113 -1.938,-1.83 -2.038,-1.719"
       style="fill:#17282f;fill-opacity:1;fill-rule:nonzero;stroke:none;stroke-width:0.1;opacity:1"
       id="path82" />
    <path
       d="m 214.653,283.295 c -0.057,0.144 0.986,0.691 2.263,1.362 1.279,0.666 2.322,1.211 2.408,1.082 0.083,-0.123 -0.847,-0.888 -2.154,-1.57 -1.305,-0.684 -2.462,-1.012 -2.517,-0.874"
       style="fill:#17282f;fill-opacity:1;fill-rule:nonzero;stroke:none;stroke-width:0.1;opacity:1"
       id="path84" />
    <path
       d="m 204.392,281.09 c -0.002,0.155 1.167,0.287 2.597,0.463 1.432,0.171 2.601,0.316 2.635,0.165 0.034,-0.144 -1.104,-0.536 -2.568,-0.711 -1.465,-0.179 -2.664,-0.065 -2.664,0.083"
       style="fill:#17282f;fill-opacity:1;fill-rule:nonzero;stroke:none;stroke-width:0.1;opacity:1"
       id="path86" />
    <path
       d="m 194.097,283.036 c 0.063,0.14 1.179,-0.229 2.557,-0.644 1.377,-0.42 2.511,-0.733 2.485,-0.887 -0.024,-0.145 -1.229,-0.071 -2.644,0.361 -1.417,0.427 -2.462,1.034 -2.398,1.17"
       style="fill:#17282f;fill-opacity:1;fill-rule:nonzero;stroke:none;stroke-width:0.1;opacity:1"
       id="path88" />
    <path
       d="m 186.795,290.277 c 0.149,0.047 0.608,-1.022 1.432,-2.182 0.81,-1.168 1.606,-2.033 1.497,-2.151 -0.093,-0.108 -1.091,0.604 -1.949,1.838 -0.872,1.231 -1.125,2.461 -0.98,2.495"
       style="fill:#17282f;fill-opacity:1;fill-rule:nonzero;stroke:none;stroke-width:0.1;opacity:1"
       id="path90" />
    <path
       d="m 191.232,298.467 c 0.043,-0.16 -1.088,-0.504 -2.223,-1.324 -1.148,-0.805 -1.75,-1.814 -1.893,-1.739 -0.138,0.041 0.3,1.285 1.572,2.185 1.257,0.899 2.528,1.013 2.544,0.878"
       style="fill:#17282f;fill-opacity:1;fill-rule:nonzero;stroke:none;stroke-width:0.1;opacity:1"
       id="path92" />
    <path
       d="m 200.274,294.714 c -0.139,-0.078 -0.777,0.908 -1.815,1.863 -1.024,0.957 -2.103,1.437 -2.043,1.589 0.033,0.136 1.284,-0.135 2.416,-1.185 1.12,-1.035 1.574,-2.21 1.442,-2.267"
       style="fill:#17282f;fill-opacity:1;fill-rule:nonzero;stroke:none;stroke-width:0.1;opacity:1"
       id="path94" />
    <path
       d="m 200.615,284.505 c -0.145,0.064 0.226,1.174 0.487,2.577 0.272,1.401 0.336,2.57 0.494,2.576 0.145,0.012 0.331,-1.206 0.046,-2.679 -0.276,-1.474 -0.897,-2.539 -1.027,-2.474"
       style="fill:#17282f;fill-opacity:1;fill-rule:nonzero;stroke:none;stroke-width:0.1;opacity:1"
       id="path96" />
    <path
       d="m 193.767,276.654 c -0.088,0.129 0.819,0.881 1.91,1.818 1.095,0.932 1.954,1.73 2.071,1.628 0.114,-0.096 -0.586,-1.085 -1.713,-2.045 -1.121,-0.963 -2.186,-1.523 -2.268,-1.401"
       style="fill:#17282f;fill-opacity:1;fill-rule:nonzero;stroke:none;stroke-width:0.1;opacity:1"
       id="path98" />
    <path
       d="m 184.414,271.799 c -0.061,0.139 0.961,0.743 2.282,1.349 1.321,0.606 2.446,0.987 2.514,0.851 0.069,-0.135 -0.953,-0.739 -2.281,-1.349 -1.329,-0.609 -2.455,-0.99 -2.515,-0.851"
       style="fill:#17282f;fill-opacity:1;fill-rule:nonzero;stroke:none;stroke-width:0.1;opacity:1"
       id="path100" />
    <path
       d="m 175.016,267.018 c -0.085,0.125 0.869,0.84 2.13,1.596 1.27,0.737 2.406,1.123 2.464,1.001 0.074,-0.151 -0.944,-0.754 -2.195,-1.48 -1.24,-0.744 -2.314,-1.243 -2.399,-1.117"
       style="fill:#17282f;fill-opacity:1;fill-rule:nonzero;stroke:none;stroke-width:0.1;opacity:1"
       id="path102" />
    <path
       d="m 167.048,260.14 c -0.112,0.099 0.582,1.075 1.631,2.104 1.047,1.03 2.035,1.707 2.131,1.592 0.1,-0.117 -0.716,-0.969 -1.746,-1.984 -1.032,-1.013 -1.9,-1.813 -2.016,-1.712"
       style="fill:#17282f;fill-opacity:1;fill-rule:nonzero;stroke:none;stroke-width:0.1;opacity:1"
       id="path104" />
    <path
       d="m 161.009,251.516 c -0.133,0.069 0.31,1.181 1.08,2.431 0.768,1.252 1.56,2.15 1.681,2.063 0.125,-0.09 -0.456,-1.117 -1.213,-2.35 -0.758,-1.232 -1.412,-2.215 -1.548,-2.144"
       style="fill:#17282f;fill-opacity:1;fill-rule:nonzero;stroke:none;stroke-width:0.1;opacity:1"
       id="path106" />
    <path
       d="m 157.164,241.714 c -0.146,0.036 0.024,1.221 0.479,2.617 0.454,1.397 1.014,2.455 1.153,2.398 0.142,-0.057 -0.183,-1.192 -0.63,-2.568 -0.449,-1.375 -0.854,-2.484 -1.002,-2.447"
       style="fill:#17282f;fill-opacity:1;fill-rule:nonzero;stroke:none;stroke-width:0.1;opacity:1"
       id="path108" />
    <path
       d="m 155.789,231.281 c -0.15,-0.002 -0.281,1.189 -0.179,2.652 0.099,1.465 0.39,2.626 0.538,2.604 0.152,-0.021 0.108,-1.199 0.01,-2.641 -0.1,-1.441 -0.215,-2.614 -0.369,-2.615"
       style="fill:#17282f;fill-opacity:1;fill-rule:nonzero;stroke:none;stroke-width:0.1;opacity:1"
       id="path110" />
    <path
       d="m 157.166,220.849 c -0.146,-0.042 -0.518,1.088 -0.83,2.524 -0.346,1.431 -0.364,2.63 -0.215,2.647 0.152,0.018 0.413,-1.132 0.753,-2.538 0.308,-1.412 0.438,-2.592 0.292,-2.633"
       style="fill:#17282f;fill-opacity:1;fill-rule:nonzero;stroke:none;stroke-width:0.1;opacity:1"
       id="path112" />
    <path
       d="m 161.239,211.143 c -0.129,-0.076 -0.841,0.887 -1.493,2.202 -0.656,1.315 -0.993,2.464 -0.854,2.521 0.142,0.058 0.7,-0.981 1.346,-2.276 0.643,-1.296 1.134,-2.369 1.001,-2.447"
       style="fill:#17282f;fill-opacity:1;fill-rule:nonzero;stroke:none;stroke-width:0.1;opacity:1"
       id="path114" />
    <path
       d="m 167.559,202.72 c -0.107,-0.105 -1.026,0.662 -1.975,1.783 -0.95,1.119 -1.557,2.151 -1.436,2.239 0.123,0.091 0.918,-0.781 1.855,-1.884 0.935,-1.104 1.666,-2.031 1.556,-2.138"
       style="fill:#17282f;fill-opacity:1;fill-rule:nonzero;stroke:none;stroke-width:0.1;opacity:1"
       id="path116" />
    <path
       d="m 175.677,196.015 c -0.079,-0.127 -1.154,0.402 -2.338,1.27 -1.186,0.865 -2.017,1.727 -1.921,1.841 0.1,0.118 1.076,-0.545 2.246,-1.398 1.167,-0.854 2.095,-1.583 2.013,-1.713"
       style="fill:#17282f;fill-opacity:1;fill-rule:nonzero;stroke:none;stroke-width:0.1;opacity:1"
       id="path118" />
    <path
       d="m 185.173,191.474 c -0.044,-0.143 -1.218,0.1 -2.58,0.65 -1.363,0.549 -2.378,1.185 -2.311,1.32 0.068,0.138 1.174,-0.27 2.516,-0.81 1.341,-0.542 2.422,-1.014 2.375,-1.16"
       style="fill:#17282f;fill-opacity:1;fill-rule:nonzero;stroke:none;stroke-width:0.1;opacity:1"
       id="path120" />
    <path
       d="m 190.469,190.133 c -0.028,-0.15 -0.091,-0.263 -0.143,-0.254 -0.051,0.01 -0.071,0.138 -0.044,0.287 0.028,0.15 0.091,0.263 0.142,0.254 0.052,-0.009 0.072,-0.138 0.045,-0.287"
       style="fill:#17282f;fill-opacity:1;fill-rule:nonzero;stroke:none;stroke-width:0.1;opacity:1"
       id="path122" />
    <path
       d="m 180.56,209.502 -10.932,3.591 2.234,6.8 10.931,-3.59 -2.233,-6.801"
       style="fill:#f03d5f;fill-opacity:1;fill-rule:nonzero;stroke:none;stroke-width:0.1;opacity:1"
       id="path124" />
    <path
       d="m 180.56,209.502 -10.862,3.567 c 0.294,0.002 1.431,0.451 2.746,1.093 1.106,0.54 2.027,1.065 2.4,1.355 0.353,-0.476 0.727,-0.975 1.116,-1.488 l 0.182,-0.24 0.123,-0.162 0.19,0.07 c 0.694,0.254 1.358,0.503 1.979,0.739 0.094,-0.456 0.451,-1.406 0.923,-2.467 0.494,-1.11 0.97,-2.037 1.229,-2.386 l -0.026,-0.081 m 0.145,0.442 c -0.139,0.503 -0.446,1.329 -0.844,2.244 -0.474,1.09 -0.937,1.959 -1.204,2.333 2.342,0.896 4.006,1.601 4.13,1.761 l -2.082,-6.338 m -11.056,3.214 2.207,6.718 c 0.005,-0.2 1.18,-1.913 2.85,-4.173 -0.474,-0.128 -1.429,-0.523 -2.503,-1.047 -1.324,-0.647 -2.383,-1.272 -2.554,-1.498 m 6.809,1.124 -0.06,0.079 c -2.221,2.931 -4.135,5.28 -4.485,5.516 l 10.839,-3.561 c -0.002,0 -0.004,0 -0.006,0 -0.383,0 -3.03,-0.855 -6.288,-2.034"
       style="fill:#eb038d;fill-opacity:1;fill-rule:nonzero;stroke:none;stroke-width:0.1;opacity:1"
       id="path126" />
    <path
       d="m 182.793,216.303 c 0.051,-0.139 -2.759,-1.293 -6.338,-2.606 l -0.19,-0.07 -0.123,0.162 -0.182,0.24 c -2.385,3.148 -4.219,5.773 -4.098,5.864 0.12,0.092 2.151,-2.384 4.536,-5.532 l 0.182,-0.24 -0.313,0.092 c 3.583,1.301 6.476,2.228 6.526,2.09"
       style="fill:#f03d5f;fill-opacity:1;fill-rule:nonzero;stroke:none;stroke-width:0.1;opacity:1"
       id="path128" />
    <path
       d="m 176.265,213.627 -0.123,0.162 -0.182,0.24 c -0.389,0.513 -0.763,1.012 -1.116,1.488 0.116,0.09 0.179,0.157 0.179,0.196 0,0.004 -0.001,0.008 -0.003,0.012 -0.008,0.016 -0.031,0.023 -0.069,0.023 -0.054,0 -0.137,-0.015 -0.245,-0.045 -1.674,2.265 -2.85,3.98 -2.85,4.174 0,0.008 0.002,0.014 0.006,0.016 0.002,0.002 0.005,0.003 0.008,0.003 0.185,0 2.186,-2.444 4.528,-5.535 l 0.06,-0.079 c 3.258,1.179 5.905,2.034 6.288,2.034 0.028,0 0.044,-0.004 0.047,-0.013 0.001,-0.002 0.001,-0.003 0.001,-0.005 -0.004,-0.122 -1.705,-0.847 -4.137,-1.777 -0.091,0.127 -0.159,0.197 -0.197,0.2 -0.001,0 -0.002,0 -0.003,0 -0.032,0 -0.048,-0.034 -0.048,-0.098 0,-0.047 0.009,-0.11 0.025,-0.187 -0.621,-0.236 -1.285,-0.485 -1.979,-0.739 l -0.19,-0.07 m 0.315,0.494 v 0 m 0,0 v 0"
       style="fill:#f03654;fill-opacity:1;fill-rule:nonzero;stroke:none;stroke-width:0.1;opacity:1"
       id="path130" />
    <path
       d="m 175.02,215.725 c 0.066,-0.136 -1.086,-0.836 -2.576,-1.563 -1.489,-0.727 -2.75,-1.206 -2.816,-1.069 -0.067,0.136 1.086,0.836 2.575,1.563 1.489,0.727 2.75,1.205 2.817,1.069"
       style="fill:#f03d5f;fill-opacity:1;fill-rule:nonzero;stroke:none;stroke-width:0.1;opacity:1"
       id="path132" />
    <path
       d="m 169.696,213.069 c -0.037,0 -0.06,0.008 -0.068,0.024 -0.002,0.003 -0.003,0.008 -0.003,0.012 -0.001,0.162 1.13,0.843 2.578,1.551 1.318,0.643 2.458,1.092 2.748,1.092 0.038,0 0.061,-0.007 0.069,-0.023 0.002,-0.004 0.003,-0.008 0.003,-0.012 0,-0.039 -0.063,-0.106 -0.179,-0.196 v 0 c -0.373,-0.29 -1.294,-0.815 -2.4,-1.355 -1.315,-0.642 -2.452,-1.091 -2.746,-1.093 0,0 -0.001,0 -0.002,0"
       style="fill:#f03654;fill-opacity:1;fill-rule:nonzero;stroke:none;stroke-width:0.1;opacity:1"
       id="path134" />
    <path
       d="m 180.759,209.436 c -0.139,-0.06 -0.755,1.079 -1.402,2.533 -0.663,1.492 -1.101,2.765 -0.897,2.752 0.151,-0.01 0.766,-1.073 1.401,-2.533 0.635,-1.459 1.037,-2.691 0.898,-2.752"
       style="fill:#f03d5f;fill-opacity:1;fill-rule:nonzero;stroke:none;stroke-width:0.1;opacity:1"
       id="path136" />
    <path
       d="m 180.747,209.434 c -0.159,0 -0.759,1.118 -1.39,2.535 -0.472,1.061 -0.829,2.011 -0.923,2.467 -0.016,0.077 -0.025,0.14 -0.025,0.187 0,0.064 0.016,0.098 0.048,0.098 0.001,0 0.002,0 0.003,0 0.151,-0.01 0.766,-1.073 1.401,-2.533 0.551,-1.265 0.926,-2.36 0.925,-2.668 0,-0.047 -0.009,-0.076 -0.027,-0.084 -0.004,-0.002 -0.008,-0.002 -0.012,-0.002"
       style="fill:#f03654;fill-opacity:1;fill-rule:nonzero;stroke:none;stroke-width:0.1;opacity:1"
       id="path138" />
    <path
       d="m 221.637,172.152 -28.124,9.239 5.747,17.496 28.124,-9.239 -5.747,-17.496"
       style="fill:#eb038d;fill-opacity:1;fill-rule:nonzero;stroke:none;stroke-width:0.1;opacity:1"
       id="path140" />
    <path
       d="m 227.384,189.648 c 0.012,-0.035 -0.434,-0.235 -1.254,-0.569 -0.924,-0.361 -2.097,-0.82 -3.5,-1.369 -2.969,-1.136 -7.096,-2.675 -11.7,-4.359 l -0.191,-0.07 -0.123,0.162 c -0.147,0.196 -0.307,0.406 -0.468,0.617 -3.067,4.049 -5.82,7.733 -7.79,10.416 -0.927,1.282 -1.702,2.353 -2.31,3.194 -0.536,0.761 -0.818,1.194 -0.788,1.217 0.03,0.023 0.37,-0.366 0.958,-1.088 0.645,-0.813 1.467,-1.849 2.45,-3.089 2.05,-2.622 4.85,-6.269 7.919,-10.318 0.16,-0.211 0.319,-0.422 0.468,-0.618 l -0.314,0.093 c 4.608,1.678 8.755,3.158 11.758,4.201 1.428,0.484 2.62,0.889 3.559,1.207 0.842,0.274 1.313,0.408 1.326,0.373"
       style="fill:#f03d5f;fill-opacity:1;fill-rule:nonzero;stroke:none;stroke-width:0.1;opacity:1"
       id="path142" />
    <path
       d="m 210.739,183.281 -0.123,0.162 c -0.147,0.196 -0.307,0.406 -0.468,0.617 -1.028,1.358 -2.022,2.675 -2.962,3.927 0.13,0.087 0.199,0.145 0.2,0.171 0,0.002 0,0.003 -0.001,0.005 -0.003,0.006 -0.012,0.009 -0.028,0.009 -0.042,0 -0.13,-0.023 -0.26,-0.067 -1.827,2.433 -3.45,4.616 -4.739,6.371 -0.927,1.282 -1.702,2.353 -2.31,3.194 -0.509,0.723 -0.789,1.149 -0.79,1.21 0,0.003 10e-4,0.005 0.002,0.007 0.001,0 0.002,0.001 0.003,0.001 0.047,0 0.383,-0.387 0.955,-1.089 0.645,-0.813 1.467,-1.849 2.45,-3.089 2.05,-2.622 4.85,-6.269 7.919,-10.318 0.117,-0.154 0.233,-0.308 0.345,-0.456 4.531,1.65 8.606,3.103 11.567,4.132 1.428,0.484 2.62,0.889 3.559,1.207 0.755,0.245 1.212,0.379 1.307,0.379 0.011,0 0.017,-0.002 0.019,-0.006 v -0.001 c -0.002,-0.04 -0.447,-0.239 -1.254,-0.568 -0.924,-0.361 -2.097,-0.82 -3.5,-1.369 -1.728,-0.661 -3.847,-1.459 -6.225,-2.342 -0.084,0.138 -0.14,0.212 -0.166,0.212 -0.002,0 -0.003,0 -0.005,-0.001 -0.007,-0.003 -0.011,-0.015 -0.01,-0.035 0,-0.041 0.016,-0.117 0.046,-0.226 -1.67,-0.62 -3.466,-1.282 -5.34,-1.967 l -0.191,-0.07 m 0.316,0.493 v 0 m 0,0 v 0"
       style="fill:#da314b;fill-opacity:1;fill-rule:nonzero;stroke:none;stroke-width:0.1;opacity:1"
       id="path144" />
    <path
       d="m 207.385,188.163 c 0.067,-0.137 -2.985,-1.763 -6.815,-3.633 -3.832,-1.87 -6.991,-3.276 -7.057,-3.139 -0.067,0.136 2.985,1.762 6.816,3.633 3.83,1.869 6.989,3.275 7.056,3.139"
       style="fill:#f03d5f;fill-opacity:1;fill-rule:nonzero;stroke:none;stroke-width:0.1;opacity:1"
       id="path146" />
    <path
       d="m 193.54,181.381 c -0.015,0 -0.024,0.003 -0.027,0.01 -0.001,0.001 -0.001,0.002 -0.001,0.004 -0.006,0.164 3.023,1.776 6.817,3.629 3.658,1.785 6.704,3.148 7.028,3.148 0.016,0 0.025,-0.003 0.028,-0.009 0.001,-0.002 0.001,-0.003 0.001,-0.005 -0.001,-0.026 -0.07,-0.084 -0.2,-0.171 v 0 c -0.734,-0.489 -3.401,-1.887 -6.616,-3.457 -3.658,-1.786 -6.703,-3.148 -7.03,-3.149 v 0"
       style="fill:#da314b;fill-opacity:1;fill-rule:nonzero;stroke:none;stroke-width:0.1;opacity:1"
       id="path148" />
    <path
       d="m 222.149,171.984 c -0.138,-0.061 -1.576,2.934 -3.209,6.687 -1.633,3.756 -2.844,6.847 -2.706,6.908 0.14,0.06 1.577,-2.934 3.21,-6.689 1.633,-3.753 2.845,-6.846 2.705,-6.906"
       style="fill:#f03d5f;fill-opacity:1;fill-rule:nonzero;stroke:none;stroke-width:0.1;opacity:1"
       id="path150" />
    <path
       d="m 222.145,171.983 c -0.163,0 -1.588,2.972 -3.205,6.688 -1.367,3.144 -2.438,5.822 -2.67,6.647 -0.03,0.109 -0.046,0.185 -0.046,0.226 -10e-4,0.02 0.003,0.032 0.01,0.035 0.002,0.001 0.003,0.001 0.005,0.001 0.163,0 1.588,-2.972 3.205,-6.69 1.547,-3.555 2.716,-6.518 2.716,-6.872 0,-0.019 -0.003,-0.031 -0.011,-0.034 -0.001,-0.001 -0.003,-0.001 -0.004,-0.001"
       style="fill:#da314b;fill-opacity:1;fill-rule:nonzero;stroke:none;stroke-width:0.1;opacity:1"
       id="path152" />
    <path
       d="m 200.809,194.588 c -1.956,-1.437 -4.705,-1.016 -6.142,0.94 -1.436,1.955 -1.016,4.705 0.94,6.141 1.955,1.437 4.705,1.016 6.141,-0.939 1.437,-1.956 1.017,-4.705 -0.939,-6.142"
       style="fill:#17282f;fill-opacity:1;fill-rule:nonzero;stroke:none;stroke-width:0.1;opacity:1"
       id="path154" />
    <path
       d="m 200.979,198.932 c 0.04,-0.072 -1.28,-0.89 -2.949,-1.827 -0.243,-0.134 -0.478,-0.265 -0.706,-0.391 l -0.126,-0.07 -0.07,0.124 c -0.75,1.33 -1.266,2.339 -1.205,2.374 0.06,0.036 0.678,-0.915 1.456,-2.23 l -0.196,0.054 c 0.226,0.129 0.46,0.261 0.701,0.399 1.669,0.937 3.055,1.638 3.095,1.567"
       style="fill:#ffffff;fill-opacity:1;fill-rule:nonzero;stroke:none;stroke-width:0.1;opacity:1"
       id="path156" />
    <path
       d="m 206.309,204.071 -14.733,4.841 3.011,9.166 14.733,-4.84 -3.011,-9.167"
       style="fill:#f03d5f;fill-opacity:1;fill-rule:nonzero;stroke:none;stroke-width:0.1;opacity:1"
       id="path158" />
    <path
       d="m 206.309,204.071 -14.719,4.836 c 0.172,0 1.767,0.714 3.683,1.649 1.684,0.822 3.082,1.555 3.466,1.811 0.493,-0.655 1.013,-1.346 1.552,-2.057 0.084,-0.111 0.168,-0.221 0.245,-0.323 l 0.065,-0.085 0.1,0.036 c 0.982,0.36 1.922,0.706 2.797,1.031 0.122,-0.432 0.682,-1.836 1.399,-3.482 0.624,-1.433 1.193,-2.655 1.483,-3.2 l -0.071,-0.216 m 0.133,0.404 c -0.226,0.629 -0.703,1.799 -1.281,3.127 -0.714,1.641 -1.356,3.005 -1.592,3.393 1.246,0.463 2.356,0.881 3.261,1.228 0.735,0.287 1.35,0.527 1.833,0.716 0.405,0.165 0.635,0.267 0.656,0.294 l -2.877,-8.758 m -14.862,4.45 3.006,9.149 c 0,-0.033 0.147,-0.255 0.413,-0.634 0.319,-0.441 0.725,-1.002 1.211,-1.674 0.675,-0.919 1.526,-2.062 2.483,-3.337 -0.454,-0.154 -1.879,-0.8 -3.547,-1.614 -1.921,-0.938 -3.468,-1.759 -3.566,-1.89 m 9.122,1.32 c -0.059,0.077 -0.12,0.158 -0.182,0.239 -1.606,2.121 -3.074,4.031 -4.148,5.406 -0.515,0.649 -0.945,1.192 -1.283,1.618 -0.276,0.338 -0.447,0.536 -0.492,0.566 l 14.715,-4.834 c -0.001,0 -0.001,0 -0.001,0 -0.05,0 -0.289,-0.069 -0.685,-0.198 -0.492,-0.167 -1.117,-0.379 -1.864,-0.632 -1.552,-0.539 -3.686,-1.301 -6.06,-2.165"
       style="fill:#eb038d;fill-opacity:1;fill-rule:nonzero;stroke:none;stroke-width:0.1;opacity:1"
       id="path160" />
    <path
       d="m 209.32,213.238 c 0.007,-0.019 -0.226,-0.124 -0.657,-0.299 -0.483,-0.189 -1.098,-0.429 -1.833,-0.716 -1.556,-0.596 -3.717,-1.402 -6.129,-2.285 l -0.1,-0.036 -0.065,0.085 c -0.077,0.102 -0.161,0.212 -0.245,0.323 -1.607,2.122 -3.049,4.051 -4.081,5.456 -0.486,0.672 -0.892,1.233 -1.211,1.674 -0.28,0.399 -0.428,0.625 -0.412,0.638 0.015,0.012 0.193,-0.192 0.502,-0.57 0.338,-0.426 0.768,-0.969 1.283,-1.618 1.074,-1.375 2.542,-3.285 4.148,-5.406 0.084,-0.111 0.168,-0.221 0.246,-0.323 l -0.165,0.047 c 2.415,0.88 4.587,1.655 6.161,2.202 0.747,0.253 1.372,0.465 1.864,0.632 0.441,0.143 0.688,0.214 0.694,0.196"
       style="fill:#f03d5f;fill-opacity:1;fill-rule:nonzero;stroke:none;stroke-width:0.1;opacity:1"
       id="path162" />
    <path
       d="m 200.601,209.902 -0.065,0.085 c -0.077,0.102 -0.161,0.212 -0.245,0.323 -0.539,0.711 -1.059,1.402 -1.552,2.057 0.068,0.046 0.104,0.076 0.105,0.09 0,0.001 0,0.002 -0.001,0.002 -10e-4,0.004 -0.006,0.005 -0.014,0.005 -0.022,0 -0.068,-0.012 -0.136,-0.035 -0.957,1.275 -1.808,2.418 -2.483,3.337 -0.486,0.672 -0.892,1.233 -1.211,1.674 -0.267,0.38 -0.414,0.604 -0.413,0.634 0,0.002 0,0.003 10e-4,0.004 0,0 0.001,0 0.002,0 0.024,0 0.2,-0.203 0.5,-0.57 0.338,-0.426 0.768,-0.969 1.283,-1.618 1.074,-1.375 2.542,-3.285 4.148,-5.406 0.062,-0.081 0.123,-0.162 0.182,-0.239 2.374,0.864 4.508,1.626 6.06,2.165 0.747,0.253 1.372,0.465 1.864,0.632 0.396,0.129 0.635,0.198 0.685,0.198 0.005,0 0.009,0 0.009,-0.002 0,-0.001 0,-0.001 0,-0.001 0,-0.021 -0.233,-0.126 -0.657,-0.298 -0.483,-0.189 -1.098,-0.429 -1.833,-0.716 -0.905,-0.347 -2.015,-0.765 -3.261,-1.228 -0.044,0.073 -0.074,0.111 -0.087,0.111 -0.001,0 -0.002,0 -0.003,0 -0.003,-0.002 -0.005,-0.008 -0.005,-0.018 0,-0.022 0.008,-0.062 0.024,-0.119 -0.875,-0.325 -1.815,-0.671 -2.797,-1.031 l -0.1,-0.036 m 0.165,0.259 v 0 m 0,0 v 0"
       style="fill:#f03d5f;fill-opacity:1;fill-rule:nonzero;stroke:none;stroke-width:0.1;opacity:1"
       id="path164" />
    <path
       d="m 198.843,212.459 c 0.035,-0.071 -1.564,-0.923 -3.57,-1.903 -2.007,-0.98 -3.662,-1.716 -3.697,-1.644 -0.035,0.071 1.563,0.923 3.57,1.903 2.007,0.979 3.663,1.716 3.697,1.644"
       style="fill:#f03d5f;fill-opacity:1;fill-rule:nonzero;stroke:none;stroke-width:0.1;opacity:1"
       id="path166" />
    <path
       d="m 191.59,208.907 c -0.008,0 -0.013,10e-4 -0.014,0.005 -0.001,0 -0.001,0.001 -0.001,0.002 -0.003,0.085 1.584,0.93 3.571,1.901 1.917,0.935 3.513,1.649 3.683,1.649 0.008,0 0.013,-0.001 0.014,-0.005 0.001,0 0.001,-0.001 0.001,-0.002 -0.001,-0.014 -0.037,-0.044 -0.105,-0.09 v 0 c -0.384,-0.256 -1.782,-0.989 -3.466,-1.811 -1.916,-0.935 -3.511,-1.649 -3.683,-1.649 v 0"
       style="fill:#f03d5f;fill-opacity:1;fill-rule:nonzero;stroke:none;stroke-width:0.1;opacity:1"
       id="path168" />
    <path
       d="m 206.578,203.983 c -0.072,-0.031 -0.825,1.537 -1.681,3.504 -0.856,1.967 -1.49,3.587 -1.418,3.619 0.074,0.032 0.827,-1.537 1.682,-3.504 0.855,-1.967 1.49,-3.587 1.417,-3.619"
       style="fill:#f03d5f;fill-opacity:1;fill-rule:nonzero;stroke:none;stroke-width:0.1;opacity:1"
       id="path170" />
    <path
       d="m 206.576,203.983 c -0.085,0 -0.832,1.557 -1.679,3.504 -0.717,1.646 -1.277,3.05 -1.399,3.482 -0.016,0.057 -0.024,0.097 -0.024,0.119 0,0.01 0.002,0.016 0.005,0.018 10e-4,0 0.002,0 0.003,0 0.086,0 0.832,-1.557 1.679,-3.504 0.81,-1.863 1.423,-3.415 1.423,-3.601 0,-0.01 -0.002,-0.016 -0.006,-0.018 -0.001,0 -0.001,0 -0.002,0"
       style="fill:#f03d5f;fill-opacity:1;fill-rule:nonzero;stroke:none;stroke-width:0.1;opacity:1"
       id="path172" />
    <path
       d="M 90.9793,328.009 C 88.143,316.828 76.7797,310.064 65.5992,312.901 c -11.1804,2.837 -17.9441,14.2 -15.1074,25.38 2.8367,11.181 14.2,17.944 25.3801,15.108 11.1808,-2.837 17.9441,-14.2 15.1074,-25.38"
       style="fill:#17282f;fill-opacity:1;fill-rule:nonzero;stroke:none;stroke-width:0.1;opacity:1"
       id="path174" />
    <path
       d="m 78.4805,344.464 c 0.364,-0.142 -2.0121,-7.133 -5.3067,-15.614 -0.484,-1.228 -0.9527,-2.415 -1.4062,-3.567 l -0.252,-0.638 -0.6308,0.243 c -6.7731,2.613 -11.716,4.761 -11.5993,5.074 0.1168,0.312 5.2559,-1.312 12.0817,-3.786 l -0.882,-0.395 c 0.4425,1.157 0.8992,2.349 1.3703,3.581 3.2945,8.481 6.2613,15.243 6.625,15.102"
       style="fill:#ffffff;fill-opacity:1;fill-rule:nonzero;stroke:none;stroke-width:0.1;opacity:1"
       id="path176" />
    <path
       d="m 347.658,32.493 c 3.653,1.8851 7.955,2.13 12.011,1.459 2.179,-0.3598 4.45,-1.0122 5.933,-2.6481 1.483,-1.6367 1.764,-4.518 0.061,-5.9238 -1.013,-0.8371 -2.427,-0.9641 -3.74,-0.9492 -3.176,0.0371 -6.698,0.5961 -9.236,-1.3137 -1.447,-1.0902 -2.41,-2.9024 -4.14,-3.4383 -1.693,-0.525 -3.603,0.4742 -4.501,2.002 -0.898,1.5281 -0.927,3.4382 -0.509,5.1601 0,0 0.44,3.7531 4.121,5.652"
       style="fill:#f03d5f;fill-opacity:1;fill-rule:nonzero;stroke:none;stroke-width:0.1;opacity:1"
       id="path178" />
    <path
       d="m 347.603,19.5379 c -1.414,0 -2.823,0.8953 -3.557,2.143 -0.544,0.925 -0.769,1.9902 -0.769,3.0691 0,0.7031 0.095,1.4109 0.26,2.091 0,0 0.44,3.7531 4.121,5.652 2.468,1.273 5.231,1.798 8.015,1.798 1.337,0 2.679,-0.1211 3.996,-0.339 2.179,-0.3598 4.45,-1.0122 5.933,-2.6481 0.782,-0.8641 1.23,-2.0719 1.229,-3.2289 -0.001,-1.0359 -0.363,-2.0301 -1.168,-2.6949 -0.963,-0.7961 -2.29,-0.95 -3.548,-0.95 -0.064,0 -0.128,0 -0.192,8e-4 -1.212,0.014 -2.474,0.1043 -3.712,0.1043 -2.008,0 -3.954,-0.2372 -5.524,-1.418 -1.447,-1.0902 -2.41,-2.9024 -4.14,-3.4383 -0.31,-0.0957 -0.627,-0.141 -0.944,-0.141"
       style="fill:#eb038d;fill-opacity:1;fill-rule:nonzero;stroke:none;stroke-width:0.1;opacity:1"
       id="path180" />
    <path
       d="m 339.288,48.65 c 2.233,-3.1898 6.575,-2.134 8.589,-0.1859 2.013,1.9468 2.864,4.7691 3.639,7.4609 1.769,6.15 3.553,12.602 2.238,18.8641 -0.394,1.873 -1.094,3.7398 -2.409,5.1289 -1.317,1.389 -3.34,2.216 -5.19,1.7269 -2.188,-0.5789 -3.55,-2.723 -4.532,-4.7621 -2.891,-5.9957 -4.422,-12.6418 -4.444,-19.2976 -0.011,-3.109 0.355,-6.368 2.109,-8.9352"
       style="fill:#eb038d;fill-opacity:1;fill-rule:nonzero;stroke:none;stroke-width:0.1;opacity:1"
       id="path182" />
    <path
       d="m 333.153,44.0719 c 2.426,2.8793 2.886,7.0773 1.807,10.684 -1.079,3.6062 -3.518,6.6742 -6.328,9.1781 -3.294,2.9371 -7.167,5.2219 -11.331,6.6859 -1.638,0.5762 -3.367,1.0313 -5.096,0.866 -1.729,-0.1648 -3.47,-1.0488 -4.276,-2.5879 -1.193,-2.2742 -0.049,-5.032 1.187,-7.2832 2.179,-3.9648 4.67,-7.7578 7.443,-11.3328 2.23,-2.8761 4.786,-5.7129 8.185,-7.0129 3.399,-1.2992 6.931,-1.1461 8.734,1.211 l -0.325,-0.4082"
       style="fill:#f03d5f;fill-opacity:1;fill-rule:nonzero;stroke:none;stroke-width:0.1;opacity:1"
       id="path184" />
    <path
       d="m 328.815,42.4551 c -1.296,0 -2.695,0.2879 -4.071,0.814 -3.399,1.3 -5.955,4.1368 -8.185,7.0129 -2.773,3.575 -5.264,7.368 -7.443,11.3328 -0.869,1.5821 -1.693,3.4161 -1.69,5.1563 0.001,0.734 0.149,1.4519 0.503,2.1269 0.806,1.5391 2.547,2.4231 4.276,2.5879 0.244,0.0231 0.488,0.034 0.732,0.034 1.484,0 2.957,-0.4051 4.364,-0.9 4.164,-1.464 8.037,-3.7488 11.331,-6.6859 2.81,-2.5039 5.249,-5.5719 6.328,-9.1781 0.362,-1.2118 0.551,-2.4899 0.55,-3.7629 -0.002,-2.516 -0.746,-5.009 -2.357,-6.9211 l 0.214,0.2691 v 0 c -1.077,-1.3051 -2.712,-1.8859 -4.552,-1.8859"
       style="fill:#eb038d;fill-opacity:1;fill-rule:nonzero;stroke:none;stroke-width:0.1;opacity:1"
       id="path186" />
    <path
       d="m 339.137,0.521094 c 0.042,-0.003125 0.109,0.514846 0.202,1.449996 0.102,1.05508 0.231,2.38008 0.385,3.95586 0.184,1.66524 0.427,3.6461 0.89,5.80395 0.461,2.1519 1.183,4.4839 2.11,6.8492 0.959,2.3519 2.129,4.489 3.497,6.198 1.358,1.7168 2.937,2.9598 4.422,3.6758 1.48,0.7313 2.807,1.0281 3.724,1.1602 0.925,0.0949 1.443,0.1679 1.443,0.2089 0,0.0411 -0.518,0.0481 -1.468,0.0231 -0.942,-0.0633 -2.324,-0.302 -3.884,-1.0109 -1.565,-0.6942 -3.239,-1.9563 -4.664,-3.7082 -1.437,-1.745 -2.65,-3.929 -3.626,-6.3219 -0.942,-2.4082 -1.653,-4.7641 -2.094,-6.9621 -0.439,-2.19495 -0.64,-4.19886 -0.771,-5.87698 -0.126,-1.68008 -0.174,-3.04102 -0.197,-3.98086 -0.021,-0.94102 -0.01,-1.462113 0.031,-1.464066"
       style="fill:#17282f;fill-opacity:1;fill-rule:nonzero;stroke:none;stroke-width:0.1;opacity:1"
       id="path188" />
    <path
       d="m 339.409,3.56484 c 0.021,0.00118 0.033,0.23321 0.039,0.67305 -10e-4,0.50625 -0.003,1.14219 -0.005,1.92422 -0.005,1.66875 -0.004,4.08479 0.086,7.06879 0.148,5.966 0.661,14.2031 1.654,23.2562 1,9.0559 2.324,17.202 3.532,23.0469 0.285,1.464 0.572,2.7832 0.843,3.9371 0.258,1.157 0.478,2.1551 0.691,2.9621 0.183,0.7598 0.331,1.3777 0.449,1.8699 0.097,0.4289 0.138,0.6578 0.118,0.6641 -0.02,0.0058 -0.099,-0.2121 -0.234,-0.6313 -0.147,-0.4847 -0.331,-1.0937 -0.559,-1.8429 -0.247,-0.8 -0.501,-1.791 -0.791,-2.9442 -0.301,-1.1488 -0.619,-2.4648 -0.931,-3.9269 -1.318,-5.8367 -2.711,-13.9938 -3.713,-23.0688 -0.995,-9.0722 -1.443,-17.332 -1.483,-23.314 -0.035,-2.9911 0.029,-5.41215 0.105,-7.08324 0.048,-0.78086 0.087,-1.4168 0.118,-1.92266 0.033,-0.43906 0.061,-0.66914 0.081,-0.66836"
       style="fill:#17282f;fill-opacity:1;fill-rule:nonzero;stroke:none;stroke-width:0.1;opacity:1"
       id="path190" />
    <path
       d="m 339.449,19.4969 c 0.042,0.0019 0.034,0.716 -0.014,2.0101 -0.074,1.291 -0.251,3.1578 -0.615,5.445 -0.385,2.28 -0.925,4.989 -1.771,7.932 -0.805,2.9531 -1.91,6.143 -3.317,9.3859 -2.752,6.527 -6.49,11.8629 -9.741,15.168 -0.763,0.8769 -1.612,1.5109 -2.292,2.1312 -0.351,0.2969 -0.662,0.593 -0.978,0.8278 -0.319,0.2203 -0.616,0.4242 -0.89,0.6133 -1.07,0.732 -1.67,1.1179 -1.691,1.0828 -0.097,-0.1309 2.396,-1.5981 5.545,-4.9469 3.135,-3.3422 6.769,-8.6422 9.498,-15.1141 1.394,-3.2148 2.507,-6.3742 3.335,-9.3 0.871,-2.914 1.449,-5.5949 1.885,-7.8531 0.414,-2.2629 0.656,-4.1117 0.8,-5.391 0.119,-1.282 0.205,-1.9918 0.246,-1.991"
       style="fill:#17282f;fill-opacity:1;fill-rule:nonzero;stroke:none;stroke-width:0.1;opacity:1"
       id="path192" />
    <path
       d="m 187.36,151.326 h 41.864 l 16.585,46.325 h -2.326 l -16.44,-44.064 -39.683,-0.225 v -2.036"
       style="fill:#33535f;fill-opacity:1;fill-rule:nonzero;stroke:none;stroke-width:0.1;opacity:1"
       id="path194" />
    <path
       d="M 168.853,145.478 170.406,0.391016 h 4.256 l -1.731,146.159984 -4.078,-1.073"
       style="fill:#000000;fill-opacity:1;fill-rule:nonzero;stroke:none;stroke-width:0.1;opacity:1"
       id="path196" />
    <path
       d="m 258.476,146.889 c -0.575,-2.77 3.838,-146.8350937 3.838,-146.8350937 h 4.02 L 263.082,146.889 h -4.606"
       style="fill:#000000;fill-opacity:1;fill-rule:nonzero;stroke:none;stroke-width:0.1;opacity:1"
       id="path198" />
    <path
       d="M 307.426,151.326 H 129.394 v -7.334 h 14.692 L 134.528,0.858984 138.709,0.632031 148.28,143.992 H 292.444 L 299.432,0.569922 h 4.192 L 296.637,143.992 h 10.789 v 7.334"
       style="fill:#000000;fill-opacity:1;fill-rule:nonzero;stroke:none;stroke-width:0.1;opacity:1"
       id="path200" />
    <path
       d="m 206.953,5.84297 0.042,11.00113 -20.606,0.2098 -0.231,-16.092962 1.277,-0.094922 c 5.682,-0.373828 28.92,-1.5 32.733,-0.38711 4.252,1.242974 -13.215,5.364064 -13.215,5.364064"
       style="fill:#eb038d;fill-opacity:1.0;fill-rule:nonzero;stroke:none;stroke-width:0.1;opacity:1"
       id="path202" />
    <path
       d="m 193.63,1.04609 c -0.276,1.725 -1.216,3.33399 -2.584,4.41993 -1.368,1.08711 -3.059,1.66914 -4.801,1.54687 l -0.063,-5.75898 7.448,-0.20782"
       style="fill:#f3f2f1;fill-opacity:1;fill-rule:nonzero;stroke:none;stroke-width:0.1;opacity:1"
       id="path204" />
    <path
       d="m 215.484,3.525 c 0,0 6.118,-1.83281 5.343,-2.835937 -0.776,-1.003126 -24.302,-0.7492193 -34.669,0.271875 l 0.038,0.460152 27.439,-0.531246 c 0,0 0.649,2.597266 1.849,2.635156"
       style="fill:#f3f2f1;fill-opacity:1;fill-rule:nonzero;stroke:none;stroke-width:0.1;opacity:1"
       id="path206" />
    <path
       d="m 185.872,1.43711 c 0,-0.00898 0.122,-0.02305 0.354,-0.04297 0.305,-0.02109 0.639,-0.04531 1.017,-0.07226 1.017,-0.05469 2.267,-0.12188 3.743,-0.20196 3.161,-0.146873 7.533,-0.293748 12.363,-0.349998 4.831,-0.055078 9.205,-0.009766 12.369,0.065234 1.477,0.044922 2.728,0.083985 3.747,0.114844 0.378,0.017969 0.712,0.033984 1.017,0.048828 0.234,0.014062 0.356,0.025392 0.355,0.033982 0,0.00821 -0.122,0.01407 -0.356,0.01602 -0.305,0 -0.64,-7.8e-4 -1.019,-0.00195 -1.018,-0.00977 -2.27,-0.02188 -3.747,-0.03477 -3.164,-0.030079 -7.535,-0.047266 -12.363,0.00703 -4.828,0.05703 -9.197,0.175 -12.359,0.27774 -1.477,0.04804 -2.728,0.08906 -3.746,0.12226 -0.378,0.00977 -0.713,0.01797 -1.019,0.02578 -0.233,0.00313 -0.356,0 -0.356,-0.00781"
       style="fill:#17282f;fill-opacity:1;fill-rule:nonzero;stroke:none;stroke-width:0.1;opacity:1"
       id="path208" />
    <path
       d="m 213.625,0.569922 c 0.076,-0.009766 0.144,0.883208 0.719,1.780078 0.559,0.90703 1.335,1.35586 1.293,1.41992 -0.015,0.06328 -0.903,-0.31601 -1.504,-1.28672 -0.614,-0.96328 -0.57,-1.927341 -0.508,-1.913278"
       style="fill:#17282f;fill-opacity:1;fill-rule:nonzero;stroke:none;stroke-width:0.1;opacity:1"
       id="path210" />
    <path
       d="m 207.579,3.72109 c 0.058,-0.03789 0.353,0.31289 0.658,0.78282 0.306,0.46992 0.507,0.88203 0.448,0.91992 -0.057,0.03711 -0.352,-0.31289 -0.658,-0.78399 -0.305,-0.46992 -0.506,-0.88203 -0.448,-0.91875"
       style="fill:#17282f;fill-opacity:1;fill-rule:nonzero;stroke:none;stroke-width:0.1;opacity:1"
       id="path212" />
    <path
       d="m 205.92,4.62109 c 0.046,-0.05195 0.373,0.16172 0.731,0.47696 0.359,0.31406 0.613,0.61211 0.567,0.66406 C 207.173,5.81406 206.845,5.6 206.486,5.28516 206.128,4.96992 205.875,4.67305 205.92,4.62109"
       style="fill:#17282f;fill-opacity:1;fill-rule:nonzero;stroke:none;stroke-width:0.1;opacity:1"
       id="path214" />
    <path
       d="m 204.887,6.57695 c -0.002,-0.06914 0.478,-0.13593 1.073,-0.14882 0.595,-0.01329 1.077,0.03203 1.079,0.10195 0.001,0.06875 -0.479,0.13476 -1.073,0.14805 -0.595,0.01289 -1.078,-0.03204 -1.079,-0.10118"
       style="fill:#17282f;fill-opacity:1;fill-rule:nonzero;stroke:none;stroke-width:0.1;opacity:1"
       id="path216" />
    <path
       d="m 204.539,7.95313 c -0.023,-0.06211 0.498,-0.30391 1.195,-0.36329 0.699,-0.06171 1.254,0.08829 1.242,0.15235 -0.011,0.0707 -0.557,0.03789 -1.219,0.09687 -0.663,0.05508 -1.196,0.18203 -1.218,0.11407"
       style="fill:#17282f;fill-opacity:1;fill-rule:nonzero;stroke:none;stroke-width:0.1;opacity:1"
       id="path218" />
    <path
       d="m 208.297,5.51094 c -0.002,-0.02891 0.506,-0.0961 1.324,-0.00703 0.408,0.04492 0.893,0.13593 1.413,0.29609 0.26,0.08906 0.53,0.15508 0.811,0.32383 0.132,0.08633 0.279,0.20703 0.332,0.4082 0.057,0.19688 -0.047,0.4211 -0.195,0.53086 -1.258,0.66914 -2.534,-0.02891 -3.01,-0.67773 -0.263,-0.33125 -0.384,-0.65508 -0.442,-0.8793 -0.055,-0.225 -0.053,-0.35469 -0.038,-0.35664 0.047,-0.01719 0.095,0.51992 0.615,1.12266 0.257,0.29531 0.644,0.58125 1.139,0.72304 0.47,0.13321 1.136,0.16406 1.577,-0.125 0.209,-0.15781 0.124,-0.4039 -0.111,-0.54101 -0.22,-0.13789 -0.502,-0.22071 -0.748,-0.30977 -0.503,-0.16719 -0.971,-0.27422 -1.367,-0.34023 -0.794,-0.13203 -1.3,-0.12774 -1.3,-0.16797"
       style="fill:#17282f;fill-opacity:1;fill-rule:nonzero;stroke:none;stroke-width:0.1;opacity:1"
       id="path220" />
    <path
       d="m 208.64,5.44102 c 0.018,-0.01407 0.217,0.32187 0.162,0.91796 -0.029,0.29219 -0.132,0.63985 -0.351,0.9711 -0.23,0.29609 -0.527,0.70508 -1.095,0.68711 -0.307,-0.03633 -0.461,-0.38438 -0.415,-0.60703 0.022,-0.23203 0.124,-0.43321 0.219,-0.59414 0.193,-0.33282 0.413,-0.60313 0.616,-0.80821 0.411,-0.40976 0.738,-0.56875 0.752,-0.54375 0.024,0.03203 -0.26,0.23985 -0.621,0.66289 -0.18,0.21211 -0.374,0.48008 -0.546,0.80118 -0.178,0.28203 -0.298,0.78593 0.035,0.84179 0.331,0.02891 0.666,-0.30508 0.866,-0.57109 0.205,-0.28867 0.317,-0.59883 0.365,-0.86485 0.096,-0.53984 -0.031,-0.88203 0.013,-0.89296"
       style="fill:#17282f;fill-opacity:1;fill-rule:nonzero;stroke:none;stroke-width:0.1;opacity:1"
       id="path222" />
    <path
       d="m 186.353,7.06992 c 0.004,-0.04687 0.591,0.05 1.521,-0.06992 0.922,-0.11211 2.201,-0.50508 3.307,-1.40508 1.105,-0.90195 1.748,-2.07578 2.044,-2.95508 0.305,-0.88671 0.329,-1.47968 0.376,-1.47578 0.015,7.8e-4 0.024,0.14883 0.004,0.41602 -0.018,0.2668 -0.077,0.65195 -0.212,1.11406 -0.26,0.9168 -0.902,2.15469 -2.054,3.09492 -1.154,0.93789 -2.495,1.3168 -3.446,1.38711 -0.479,0.03789 -0.868,0.01875 -1.133,-0.01719 -0.265,-0.03515 -0.408,-0.07382 -0.407,-0.08906"
       style="fill:#17282f;fill-opacity:1;fill-rule:nonzero;stroke:none;stroke-width:0.1;opacity:1"
       id="path224" />
    <path
       d="m 188.581,15.6219 c -0.068,0.0011 -0.168,-1.893 -0.224,-4.2309 -0.054,-2.33787 -0.043,-4.23397 0.026,-4.23592 0.069,-0.00117 0.169,1.8918 0.224,4.23082 0.055,2.3379 0.044,4.234 -0.026,4.236"
       style="fill:#17282f;fill-opacity:1;fill-rule:nonzero;stroke:none;stroke-width:0.1;opacity:1"
       id="path226" />
    <path
       d="m 196.245,3.02695 c -0.01,-0.06406 1.331,-0.29882 3.005,-0.33086 1.674,-0.03593 3.022,0.14375 3.016,0.20899 -0.006,0.07187 -1.352,0.00508 -3.011,0.04101 -1.658,0.03086 -3.001,0.15274 -3.01,0.08086"
       style="fill:#17282f;fill-opacity:1;fill-rule:nonzero;stroke:none;stroke-width:0.1;opacity:1"
       id="path228" />
    <path
       d="m 192.207,3.07695 c -0.051,-0.05 0.107,-0.28711 0.241,-0.59687 0.138,-0.30899 0.206,-0.58516 0.277,-0.58086 0.067,0 0.11,0.32461 -0.049,0.68164 -0.156,0.3582 -0.425,0.54531 -0.469,0.49609"
       style="fill:#17282f;fill-opacity:1;fill-rule:nonzero;stroke:none;stroke-width:0.1;opacity:1"
       id="path230" />
    <path
       d="m 190.705,4.98711 c -0.049,-0.04805 0.081,-0.26328 0.292,-0.48203 0.211,-0.21914 0.422,-0.35703 0.472,-0.30899 0.049,0.04805 -0.081,0.26407 -0.292,0.48282 -0.211,0.21797 -0.422,0.35625 -0.472,0.3082"
       style="fill:#17282f;fill-opacity:1;fill-rule:nonzero;stroke:none;stroke-width:0.1;opacity:1"
       id="path232" />
    <path
       d="m 188.537,5.87617 c 0.014,-0.07031 0.287,-0.07031 0.589,-0.18008 0.304,-0.10312 0.517,-0.27421 0.572,-0.22695 0.056,0.03672 -0.114,0.33203 -0.49,0.46289 -0.374,0.13203 -0.691,0.00781 -0.671,-0.05586"
       style="fill:#17282f;fill-opacity:1;fill-rule:nonzero;stroke:none;stroke-width:0.1;opacity:1"
       id="path234" />
    <path
       d="m 186.991,6.30117 c -0.026,-0.06406 0.091,-0.17109 0.262,-0.23906 0.17,-0.06797 0.329,-0.07109 0.354,-0.00703 0.026,0.06406 -0.091,0.16992 -0.261,0.23906 -0.171,0.06797 -0.329,0.0707 -0.355,0.00703"
       style="fill:#17282f;fill-opacity:1;fill-rule:nonzero;stroke:none;stroke-width:0.1;opacity:1"
       id="path236" />
    <path
       d="m 247.521,16.952 -4.488,10.0429 -18.867,-8.2859 6.41,-14.76291 1.203,0.43907 c 5.333,1.99687 26.977,10.53084 29.993,13.11484 3.365,2.882 -14.251,-0.548 -14.251,-0.548"
       style="fill:#eb038d;fill-opacity:1.0;fill-rule:nonzero;stroke:none;stroke-width:0.1;opacity:1"
       id="path238" />
    <path
       d="m 237.352,7.09883 c -0.96,1.4582 -2.481,2.53711 -4.174,2.96527 -1.694,0.4269 -3.475,0.2621 -5.012,-0.56605 l 2.311,-5.27422 6.875,2.875"
       style="fill:#f3f2f1;fill-opacity:1;fill-rule:nonzero;stroke:none;stroke-width:0.1;opacity:1"
       id="path240" />
    <path
       d="m 256.251,18.3488 c 0,0 6.331,0.8473 6.036,-0.3867 C 261.992,16.7289 240.445,7.28203 230.576,3.94609 l -0.154,0.43477 25.226,10.80504 c 0,0 -0.475,2.634 0.603,3.1629"
       style="fill:#f3f2f1;fill-opacity:1;fill-rule:nonzero;stroke:none;stroke-width:0.1;opacity:1"
       id="path242" />
    <path
       d="m 230.12,4.26211 c 0.004,-0.0082 0.12,0.02891 0.34,0.10781 0.287,0.10508 0.601,0.2211 0.957,0.35196 0.949,0.36796 2.117,0.82109 3.494,1.35625 2.943,1.16601 6.987,2.83085 11.412,4.76677 4.426,1.9371 8.395,3.7781 11.247,5.1481 1.328,0.6492 2.453,1.1992 3.368,1.6468 0.337,0.1723 0.635,0.3243 0.908,0.4633 0.207,0.1078 0.313,0.1688 0.309,0.177 -0.004,0.007 -0.118,-0.0379 -0.331,-0.1321 -0.279,-0.1261 -0.584,-0.264 -0.928,-0.421 -0.924,-0.427 -2.06,-0.954 -3.401,-1.5739 -2.871,-1.3293 -6.849,-3.1429 -11.271,-5.0793 -4.423,-1.93474 -8.455,-3.62497 -11.379,-4.83161 -1.366,-0.56406 -2.523,-1.04102 -3.464,-1.43008 -0.349,-0.14727 -0.657,-0.27695 -0.94,-0.39609 -0.214,-0.09297 -0.324,-0.1461 -0.321,-0.15391"
       style="fill:#17282f;fill-opacity:1;fill-rule:nonzero;stroke:none;stroke-width:0.1;opacity:1"
       id="path244" />
    <path
       d="m 255.772,14.891 c 0.074,0.0219 -0.232,0.8649 -0.077,1.918 0.136,1.057 0.658,1.7851 0.593,1.8262 -0.038,0.0507 -0.691,-0.6602 -0.841,-1.7911 -0.162,-1.1312 0.275,-1.9921 0.325,-1.9531"
       style="fill:#17282f;fill-opacity:1;fill-rule:nonzero;stroke:none;stroke-width:0.1;opacity:1"
       id="path246" />
    <path
       d="m 248.965,15.275 c 0.068,-0.0102 0.192,0.4301 0.277,0.9852 0.086,0.5539 0.1,1.0117 0.031,1.0226 -0.068,0.0102 -0.192,-0.4308 -0.277,-0.9848 -0.085,-0.555 -0.1,-1.0128 -0.031,-1.023"
       style="fill:#17282f;fill-opacity:1;fill-rule:nonzero;stroke:none;stroke-width:0.1;opacity:1"
       id="path248" />
    <path
       d="m 247.083,15.4121 c 0.062,-0.0281 0.273,0.302 0.471,0.7359 0.196,0.4352 0.305,0.8102 0.243,0.8391 -0.064,0.0277 -0.274,-0.3012 -0.471,-0.7359 -0.197,-0.434 -0.306,-0.8102 -0.243,-0.8391"
       style="fill:#17282f;fill-opacity:1;fill-rule:nonzero;stroke:none;stroke-width:0.1;opacity:1"
       id="path250" />
    <path
       d="m 245.336,16.7699 c 0.026,-0.064 0.492,0.0742 1.039,0.3071 0.548,0.232 0.97,0.4718 0.942,0.5359 -0.027,0.0633 -0.492,-0.0738 -1.04,-0.3059 -0.547,-0.2332 -0.968,-0.473 -0.941,-0.5371"
       style="fill:#17282f;fill-opacity:1;fill-rule:nonzero;stroke:none;stroke-width:0.1;opacity:1"
       id="path252" />
    <path
       d="m 244.453,17.8809 c 0.004,-0.0661 0.579,-0.0719 1.239,0.1621 0.661,0.2312 1.107,0.5961 1.069,0.6492 -0.039,0.0598 -0.523,-0.1953 -1.152,-0.4133 -0.627,-0.223 -1.163,-0.3258 -1.156,-0.398"
       style="fill:#17282f;fill-opacity:1;fill-rule:nonzero;stroke:none;stroke-width:0.1;opacity:1"
       id="path254" />
    <path
       d="m 248.884,17.202 c 0.009,-0.027 0.5,0.121 1.209,0.539 0.353,0.209 0.757,0.491 1.166,0.8512 0.2,0.1879 0.419,0.359 0.605,0.6277 0.085,0.1332 0.169,0.3043 0.136,0.509 -0.03,0.2031 -0.217,0.3652 -0.397,0.4039 -1.422,0.0922 -2.297,-1.0687 -2.464,-1.8566 -0.104,-0.409 -0.081,-0.7551 -0.041,-0.9821 0.042,-0.2293 0.097,-0.3461 0.112,-0.341 0.05,0.002 -0.128,0.5129 0.099,1.2758 0.112,0.375 0.346,0.7953 0.74,1.127 0.373,0.3152 0.968,0.6171 1.489,0.5363 0.255,-0.0582 0.279,-0.3184 0.121,-0.5391 -0.143,-0.216 -0.367,-0.4082 -0.555,-0.5902 -0.389,-0.3598 -0.771,-0.6488 -1.105,-0.8731 -0.67,-0.4468 -1.132,-0.6507 -1.115,-0.6878"
       style="fill:#17282f;fill-opacity:1;fill-rule:nonzero;stroke:none;stroke-width:0.1;opacity:1"
       id="path256" />
    <path
       d="m 249.224,17.2789 c 0.023,-0.0047 0.066,0.382 -0.23,0.9031 -0.146,0.2551 -0.384,0.5301 -0.719,0.741 -0.332,0.1758 -0.77,0.4258 -1.281,0.1758 -0.265,-0.159 -0.262,-0.5398 -0.128,-0.7238 0.115,-0.2031 0.291,-0.343 0.444,-0.4512 0.313,-0.2238 0.625,-0.3797 0.894,-0.4828 0.543,-0.2051 0.906,-0.216 0.909,-0.1871 0.009,0.0391 -0.337,0.1121 -0.84,0.3492 -0.25,0.1199 -0.537,0.284 -0.826,0.5051 -0.279,0.184 -0.595,0.5938 -0.315,0.7816 0.291,0.1633 0.733,-0.0027 1.025,-0.1636 0.306,-0.1793 0.535,-0.4153 0.689,-0.6383 0.308,-0.4527 0.334,-0.818 0.378,-0.809"
       style="fill:#17282f;fill-opacity:1;fill-rule:nonzero;stroke:none;stroke-width:0.1;opacity:1"
       id="path258" />
    <path
       d="m 228.241,9.59492 c 0.024,-0.04101 0.519,0.28789 1.415,0.56208 0.886,0.2762 2.214,0.445 3.592,0.0801 1.379,-0.36718 2.447,-1.17304 3.079,-1.85312 0.643,-0.68203 0.909,-1.21406 0.949,-1.18984 0.014,0.00703 -0.039,0.1457 -0.167,0.38086 -0.126,0.23516 -0.339,0.56211 -0.651,0.92695 -0.614,0.72891 -1.708,1.59295 -3.146,1.97615 -1.437,0.3809 -2.815,0.1739 -3.71,-0.1531 -0.454,-0.1629 -0.8,-0.33984 -1.027,-0.48203 -0.227,-0.14102 -0.342,-0.23477 -0.334,-0.24805"
       style="fill:#17282f;fill-opacity:1;fill-rule:nonzero;stroke:none;stroke-width:0.1;opacity:1"
       id="path260" />
    <path
       d="m 226.754,18.3059 c -0.064,-0.027 0.624,-1.795 1.536,-3.9477 0.912,-2.1543 1.702,-3.8781 1.767,-3.8512 0.062,0.027 -0.625,1.795 -1.538,3.9481 -0.911,2.1539 -1.702,3.8781 -1.765,3.8508"
       style="fill:#17282f;fill-opacity:1;fill-rule:nonzero;stroke:none;stroke-width:0.1;opacity:1"
       id="path262" />
    <path
       d="m 238.92,9.97891 c 0.018,-0.06172 1.337,0.27499 2.875,0.93519 1.541,0.6558 2.696,1.375 2.663,1.4308 -0.035,0.0641 -1.234,-0.5519 -2.761,-1.2019 -1.524,-0.6532 -2.799,-1.0942 -2.777,-1.16409"
       style="fill:#17282f;fill-opacity:1;fill-rule:nonzero;stroke:none;stroke-width:0.1;opacity:1"
       id="path264" />
    <path
       d="m 235.22,8.36289 c -0.027,-0.06601 0.215,-0.2168 0.465,-0.44375 0.252,-0.225 0.428,-0.44805 0.491,-0.41601 0.061,0.02773 -0.033,0.34101 -0.324,0.60078 -0.291,0.26211 -0.612,0.32304 -0.632,0.25898"
       style="fill:#17282f;fill-opacity:1;fill-rule:nonzero;stroke:none;stroke-width:0.1;opacity:1"
       id="path266" />
    <path
       d="m 233.064,9.48711 c -0.025,-0.06406 0.183,-0.20703 0.465,-0.31992 0.282,-0.11211 0.531,-0.15117 0.557,-0.08711 0.025,0.06406 -0.183,0.20703 -0.465,0.31914 -0.281,0.11289 -0.531,0.15195 -0.557,0.08789"
       style="fill:#17282f;fill-opacity:1;fill-rule:nonzero;stroke:none;stroke-width:0.1;opacity:1"
       id="path268" />
    <path
       d="m 230.723,9.40508 c 0.041,-0.0582 0.291,0.0539 0.61,0.07812 0.32,0.03086 0.585,-0.03632 0.616,0.02774 0.035,0.05703 -0.241,0.25625 -0.638,0.21992 -0.395,-0.03203 -0.633,-0.27578 -0.588,-0.32578"
       style="fill:#17282f;fill-opacity:1;fill-rule:nonzero;stroke:none;stroke-width:0.1;opacity:1"
       id="path270" />
    <path
       d="m 229.139,9.15586 c 0.003,-0.06875 0.154,-0.11797 0.337,-0.10977 0.183,0.00782 0.329,0.06993 0.326,0.13907 -0.003,0.06875 -0.154,0.11797 -0.337,0.10976 -0.183,-0.00781 -0.329,-0.06992 -0.326,-0.13906"
       style="fill:#17282f;fill-opacity:1;fill-rule:nonzero;stroke:none;stroke-width:0.1;opacity:1"
       id="path272" />
    <path
       d="M 60.5113,90.4559 45.6328,201.65 c -0.398,2.973 2.0574,5.551 5.0469,5.299 l 35.8617,-3.029 c 3.3043,-0.279 5.9238,-2.903 6.1984,-6.208 L 101.472,92.4352 60.5113,90.4559"
       style="fill:#f03d5f;fill-opacity:1;fill-rule:nonzero;stroke:none;stroke-width:0.1;opacity:1"
       id="path274" />
    <path
       d="M 60.5113,90.4559 45.6328,201.65 c -0.0289,0.216 -0.043,0.43 -0.0426,0.641 0.0043,2.56 2.0961,4.675 4.6852,4.675 0.1336,0 0.268,-0.006 0.4043,-0.017 l 35.8617,-3.029 c 3.3043,-0.279 5.9238,-2.903 6.1984,-6.208 l 5.0903,-61.367 -18.3332,-3.938 c 0.0179,0.392 0.0187,0.575 0.0148,0.575 -0.0496,0 -0.8082,-26.604 19.5246,-31.043 l -39.8093,-0.64 1.3687,-10.8388 -0.0844,-0.0043"
       style="fill:#eb038d;fill-opacity:1;fill-rule:nonzero;stroke:none;stroke-width:0.1;opacity:1"
       id="path276" />
    <path
       d="m 95.1141,253.872 c -0.3,4.233 -1.4114,8.363 -2.0274,12.562 -0.6156,4.199 -0.7058,8.627 0.952,12.534 1.8742,4.417 5.8648,7.724 10.3373,9.461 4.473,1.738 9.397,2.031 14.178,1.619 0.86,-0.074 1.741,-0.178 2.508,-0.572 0.769,-0.395 1.41,-1.145 1.437,-2.008 0.027,-0.863 -0.743,-1.737 -1.598,-1.619 1.818,-0.252 3.653,-0.508 5.372,-1.151 0.684,-0.256 1.391,-0.611 1.738,-1.254 0.395,-0.73 0.213,-1.663 -0.24,-2.358 -0.452,-0.696 -1.134,-1.204 -1.802,-1.696 0.84,0.266 1.754,-0.455 1.945,-1.314 0.19,-0.86 -0.173,-1.754 -0.686,-2.469 -0.513,-0.715 -1.175,-1.312 -1.704,-2.016 -2.162,-2.876 -1.738,-6.867 -1.214,-10.428"
       style="fill:#17282f;fill-opacity:1;fill-rule:nonzero;stroke:none;stroke-width:0.1;opacity:1"
       id="path278" />
    <path
       d="m 95.5094,229.027 20.2086,0.365 c 0.27,2.34 0.663,11.434 0.663,11.434 0,0 8.447,0.785 9.066,9.144 0.62,8.359 0.355,27.658 0.355,27.658 -9.427,4.759 -20.692,4.044 -29.4407,-1.87 l -1.2984,-0.878 0.4465,-45.853"
       style="fill:#c0776a;fill-opacity:1;fill-rule:nonzero;stroke:none;stroke-width:0.1;opacity:1"
       id="path280" />
    <path
       d="m 122.99,263.123 c -0.47,0.482 -0.46,1.252 0.022,1.722 0.481,0.469 1.252,0.459 1.721,-0.022 0.469,-0.482 0.459,-1.252 -0.022,-1.722 -0.482,-0.469 -1.252,-0.459 -1.721,0.022"
       style="fill:#17282f;fill-opacity:1;fill-rule:nonzero;stroke:none;stroke-width:0.1;opacity:1"
       id="path282" />
    <path
       d="m 125.136,265.154 c -0.14,-0.137 -0.923,0.546 -2.075,0.623 -1.15,0.093 -2.024,-0.468 -2.143,-0.312 -0.058,0.07 0.089,0.323 0.471,0.578 0.375,0.254 1.006,0.482 1.724,0.429 0.718,-0.053 1.308,-0.371 1.642,-0.677 0.341,-0.309 0.448,-0.581 0.381,-0.641"
       style="fill:#17282f;fill-opacity:1;fill-rule:nonzero;stroke:none;stroke-width:0.1;opacity:1"
       id="path284" />
    <path
       d="m 111.799,264.969 c 0.55,-0.387 0.682,-1.146 0.296,-1.696 -0.387,-0.55 -1.146,-0.682 -1.696,-0.296 -0.55,0.387 -0.682,1.146 -0.296,1.696 0.387,0.55 1.146,0.682 1.696,0.296"
       style="fill:#17282f;fill-opacity:1;fill-rule:nonzero;stroke:none;stroke-width:0.1;opacity:1"
       id="path286" />
    <path
       d="m 112.559,264.911 c -0.141,-0.136 -0.923,0.546 -2.075,0.623 -1.151,0.094 -2.025,-0.467 -2.143,-0.311 -0.058,0.07 0.089,0.323 0.47,0.578 0.376,0.253 1.007,0.482 1.725,0.428 0.717,-0.053 1.308,-0.371 1.641,-0.677 0.341,-0.308 0.449,-0.58 0.382,-0.641"
       style="fill:#17282f;fill-opacity:1;fill-rule:nonzero;stroke:none;stroke-width:0.1;opacity:1"
       id="path288" />
    <path
       d="m 116.592,255.121 c -0.002,0.091 0.719,0.191 1.887,0.28 0.304,0.014 0.544,0.068 0.576,0.228 0.066,0.179 -0.031,0.509 -0.162,0.877 -0.25,0.78 -0.502,1.57 -0.767,2.397 -1.053,3.413 -1.766,6.223 -1.592,6.276 0.173,0.054 1.167,-2.669 2.219,-6.082 0.248,-0.833 0.485,-1.627 0.718,-2.413 0.089,-0.355 0.274,-0.775 0.088,-1.263 -0.099,-0.243 -0.348,-0.409 -0.55,-0.449 -0.203,-0.048 -0.373,-0.038 -0.518,-0.035 -1.171,0.03 -1.897,0.094 -1.899,0.184"
       style="fill:#17282f;fill-opacity:1;fill-rule:nonzero;stroke:none;stroke-width:0.1;opacity:1"
       id="path290" />
    <path
       d="m 112.77,254.079 c -1.156,0.789 3.197,-1.96 5.549,-1.99 0,0 -1.478,-2.067 -3.835,-1.035 -2.447,1.07 -1.714,3.025 -1.714,3.025"
       style="fill:#ffffff;fill-opacity:1;fill-rule:nonzero;stroke:none;stroke-width:0.1;opacity:1"
       id="path292" />
    <path
       d="m 116.402,240.946 c 0,0 -5.314,-0.104 -10.715,3.772 0,0 2.206,-6.18 10.601,-5.941 l 0.114,2.169"
       style="fill:#ac584f;fill-opacity:1;fill-rule:nonzero;stroke:none;stroke-width:0.1;opacity:1"
       id="path294" />
    <path
       d="m 94.7934,268.54 0.4371,-10.85 c 0,0 3.8043,1.157 4.0601,1.267 0.2563,0.111 -0.0718,13.288 -0.0718,13.288 0,0 -0.5333,4.97 2.7092,6.149 3.406,1.239 4.892,-1.235 9.72,-2.048 15.932,-2.684 14.833,2.204 14.833,2.204 0,0 2.01,2.147 -2.081,4.51 -4.226,2.442 -14.325,3.159 -19.928,1.23 -11.0279,-3.796 -11.6599,-7.56 -11.6599,-10.891 0,-4.658 1.9813,-4.859 1.9813,-4.859"
       style="fill:#17282f;fill-opacity:1;fill-rule:nonzero;stroke:none;stroke-width:0.1;opacity:1"
       id="path296" />
    <path
       d="m 96.6688,267.458 c -0.1817,0.069 -6.2063,0.852 -5.6375,-6.262 0.5691,-7.115 7.5664,-4.187 7.5625,-3.982 -0.004,0.204 -1.925,10.244 -1.925,10.244"
       style="fill:#c0776a;fill-opacity:1;fill-rule:nonzero;stroke:none;stroke-width:0.1;opacity:1"
       id="path298" />
    <path
       d="m 96.2145,259.536 c -0.0332,0.02 -0.1172,-0.097 -0.3192,-0.209 -0.1965,-0.11 -0.543,-0.203 -0.9246,-0.094 -0.7738,0.216 -1.5019,1.359 -1.6391,2.638 -0.0699,0.646 0.0161,1.274 0.2051,1.803 0.1758,0.538 0.4828,0.928 0.8559,1.026 0.3695,0.117 0.6558,-0.088 0.7586,-0.282 0.1113,-0.191 0.0777,-0.337 0.1164,-0.345 0.0211,-0.017 0.1429,0.13 0.0625,0.42 -0.041,0.139 -0.1379,0.3 -0.316,0.423 -0.1817,0.125 -0.4383,0.176 -0.6996,0.127 -0.5461,-0.082 -0.9993,-0.627 -1.2067,-1.207 -0.2375,-0.586 -0.3496,-1.292 -0.2711,-2.017 0.1602,-1.43 1.0016,-2.713 2.0539,-2.929 0.5106,-0.09 0.916,0.094 1.118,0.28 0.2066,0.193 0.2316,0.355 0.2059,0.366"
       style="fill:#ac584f;fill-opacity:1;fill-rule:nonzero;stroke:none;stroke-width:0.1;opacity:1"
       id="path300" />
    <path
       d="m 176.09,171.547 c 0,0 9.956,0.476 12.031,-0.428 3.467,-1.512 13.761,-17.658 13.242,-17.661 -1.553,-0.008 -4.763,0.014 -4.763,0.014 l -16.025,6.066 -3.766,-0.953 -0.719,12.962"
       style="fill:#c0776a;fill-opacity:1;fill-rule:nonzero;stroke:none;stroke-width:0.1;opacity:1"
       id="path302" />
    <path
       d="m 219.083,125.204 c 0,0 29.95,-103.6458 29.993,-103.1142 0.044,0.5321 -26.818,-12.92886 -26.818,-12.92886 l -18.141,74.94216 14.966,41.1009"
       style="fill:#17282f;fill-opacity:1;fill-rule:nonzero;stroke:none;stroke-width:0.1;opacity:1"
       id="path304" />
    <path
       d="m 221.665,8.52695 28.346,13.83205 -1.231,3.7851 -28.565,-13.848 1.45,-3.76915"
       style="fill:#33535f;fill-opacity:1;fill-rule:nonzero;stroke:none;stroke-width:0.1;opacity:1"
       id="path306" />
    <path
       d="m 217.945,46.6531 c -0.145,-0.0441 -0.463,0.6008 -0.709,1.4391 -0.247,0.8387 -0.328,1.5519 -0.182,1.5949 0.145,0.0418 0.464,-0.6031 0.709,-1.4402 0.246,-0.8367 0.328,-1.5508 0.182,-1.5938"
       style="fill:#33535f;fill-opacity:1;fill-rule:nonzero;stroke:none;stroke-width:0.1;opacity:1"
       id="path308" />
    <path
       d="m 219.792,40.6031 c -0.145,-0.0461 -0.472,0.5949 -0.73,1.4289 -0.257,0.836 -0.349,1.5481 -0.205,1.5918 0.146,0.0453 0.473,-0.5949 0.731,-1.4289 0.258,-0.834 0.348,-1.5469 0.204,-1.5918"
       style="fill:#33535f;fill-opacity:1;fill-rule:nonzero;stroke:none;stroke-width:0.1;opacity:1"
       id="path310" />
    <path
       d="m 221.725,34.5781 c -0.145,-0.0472 -0.48,0.5879 -0.75,1.4199 -0.27,0.8309 -0.373,1.543 -0.227,1.5891 0.144,0.0469 0.479,-0.5891 0.749,-1.4199 0.27,-0.8301 0.372,-1.5422 0.228,-1.5891"
       style="fill:#33535f;fill-opacity:1;fill-rule:nonzero;stroke:none;stroke-width:0.1;opacity:1"
       id="path312" />
    <path
       d="m 223.742,28.5801 c -0.143,-0.0492 -0.488,0.5808 -0.769,1.409 -0.283,0.8281 -0.394,1.5379 -0.25,1.5871 0.143,0.0476 0.488,-0.5832 0.77,-1.4102 0.281,-0.8262 0.393,-1.5359 0.249,-1.5859"
       style="fill:#33535f;fill-opacity:1;fill-rule:nonzero;stroke:none;stroke-width:0.1;opacity:1"
       id="path314" />
    <path
       d="m 225.845,22.6102 c -0.143,-0.052 -0.496,0.575 -0.79,1.3988 -0.293,0.823 -0.415,1.532 -0.272,1.5832 0.143,0.05 0.496,-0.5762 0.79,-1.3992 0.293,-0.8231 0.414,-1.5321 0.272,-1.5828"
       style="fill:#33535f;fill-opacity:1;fill-rule:nonzero;stroke:none;stroke-width:0.1;opacity:1"
       id="path316" />
    <path
       d="m 228.031,16.6691 c -0.141,-0.0531 -0.504,0.568 -0.809,1.3879 -0.305,0.8192 -0.437,1.5262 -0.294,1.5789 0.142,0.052 0.505,-0.5687 0.809,-1.3879 0.305,-0.8179 0.437,-1.525 0.294,-1.5789"
       style="fill:#33535f;fill-opacity:1;fill-rule:nonzero;stroke:none;stroke-width:0.1;opacity:1"
       id="path318" />
    <path
       d="m 226.435,14.177 c -0.035,-0.0161 -0.246,0.371 -0.599,1.0851 -0.351,0.7149 -0.832,1.7621 -1.381,3.0758 -1.112,2.6211 -2.483,6.3082 -3.86,10.4242 -1.38,4.116 -2.535,7.8688 -3.362,10.5891 -0.376,1.2758 -0.693,2.3547 -0.951,3.2289 -0.215,0.766 -0.316,1.1949 -0.28,1.2058 0.036,0.0121 0.206,-0.3949 0.483,-1.1398 0.279,-0.7461 0.659,-1.8313 1.118,-3.1762 0.939,-2.814 2.161,-6.4789 3.512,-10.534 1.375,-4.1078 2.684,-7.8039 3.7,-10.4539 0.481,-1.2379 0.888,-2.2859 1.217,-3.134 0.292,-0.739 0.438,-1.1558 0.403,-1.171"
       style="fill:#33535f;fill-opacity:1;fill-rule:nonzero;stroke:none;stroke-width:0.1;opacity:1"
       id="path320" />
    <path
       d="m 79.4969,132.407 c 0.2519,5.494 -2.8703,-30.126 24.5081,-31.073 27.408,-0.946 83.322,-0.527 83.322,-0.527 l -6.551,-90.3281 h 32.846 l 6.863,96.0561 c 0,0 3.497,27.839 -15.549,31.393 -11.922,2.225 -86.051,2.941 -86.051,2.941 l -39.3881,-8.462"
       style="fill:#17282f;fill-opacity:1;fill-rule:nonzero;stroke:none;stroke-width:0.1;opacity:1"
       id="path322" />
    <path
       d="m 180.026,10.2852 h 34.589 v 5.3789 l -34.589,-0.0422 v -5.3367"
       style="fill:#33535f;fill-opacity:1;fill-rule:nonzero;stroke:none;stroke-width:0.1;opacity:1"
       id="path324" />
    <path
       d="m 125.911,105.605 c 0,0.009 0.119,0.022 0.352,0.037 0.258,0.015 0.601,0.035 1.036,0.06 0.942,0.041 2.282,0.101 4.001,0.177 3.513,0.134 8.564,0.326 14.845,0.566 12.633,0.433 30.205,1.037 50.091,1.72 l 0.318,0.011 -0.039,-0.317 c -0.452,-3.684 -0.83,-7.568 -1.15,-11.5238 -0.435,-5.643 -0.86,-11.1532 -1.27,-16.4743 -0.431,-5.3238 -1.009,-10.4418 -1.507,-15.3187 -1.023,-9.7481 -1.945,-18.5281 -2.72,-25.9141 -0.792,-7.3519 -1.433,-13.3109 -1.881,-17.4652 -0.231,-2.0367 -0.412,-3.6301 -0.539,-4.7449 -0.065,-0.5211 -0.116,-0.9289 -0.154,-1.2328 -0.038,-0.2774 -0.062,-0.4192 -0.071,-0.418 -0.01,8e-4 -0.004,0.1437 0.015,0.4238 0.025,0.3051 0.058,0.7149 0.1,1.2379 0.102,1.1172 0.249,2.7141 0.436,4.7563 0.406,4.1578 0.989,10.123 1.707,17.4828 0.742,7.389 1.624,16.173 2.603,25.9261 0.484,4.8809 1.052,9.9957 1.475,15.3118 0.406,5.3211 0.827,10.8312 1.258,16.4742 0.321,3.9609 0.701,7.8519 1.158,11.5469 l 0.279,-0.306 c -19.889,-0.61 -37.463,-1.15 -50.097,-1.538 -6.283,-0.169 -11.336,-0.305 -14.851,-0.401 -1.719,-0.035 -3.061,-0.062 -4.004,-0.082 -0.436,-0.003 -0.779,-0.006 -1.037,-0.009 -0.234,0.001 -0.354,0.006 -0.354,0.014"
       style="fill:#33535f;fill-opacity:1;fill-rule:nonzero;stroke:none;stroke-width:0.1;opacity:1"
       id="path326" />
    <path
       d="m 129.076,109.487 c 0.004,-0.152 -0.703,-0.291 -1.576,-0.312 -0.874,-0.021 -1.586,0.086 -1.589,0.237 -0.003,0.152 0.702,0.292 1.576,0.312 0.874,0.021 1.585,-0.085 1.589,-0.237"
       style="fill:#33535f;fill-opacity:1;fill-rule:nonzero;stroke:none;stroke-width:0.1;opacity:1"
       id="path328" />
    <path
       d="m 135.406,109.636 c 0.003,-0.152 -0.702,-0.292 -1.576,-0.312 -0.874,-0.021 -1.586,0.086 -1.589,0.237 -0.004,0.152 0.702,0.291 1.576,0.312 0.873,0.021 1.585,-0.086 1.589,-0.237"
       style="fill:#33535f;fill-opacity:1;fill-rule:nonzero;stroke:none;stroke-width:0.1;opacity:1"
       id="path330" />
    <path
       d="m 141.735,109.785 c 0.004,-0.152 -0.702,-0.292 -1.576,-0.312 -0.874,-0.021 -1.585,0.085 -1.589,0.237 -0.003,0.152 0.702,0.291 1.576,0.312 0.874,0.02 1.585,-0.086 1.589,-0.237"
       style="fill:#33535f;fill-opacity:1;fill-rule:nonzero;stroke:none;stroke-width:0.1;opacity:1"
       id="path332" />
    <path
       d="m 148.065,109.933 c 0.003,-0.151 -0.702,-0.291 -1.576,-0.312 -0.874,-0.02 -1.586,0.086 -1.589,0.238 -0.004,0.152 0.702,0.291 1.576,0.312 0.874,0.02 1.585,-0.086 1.589,-0.238"
       style="fill:#33535f;fill-opacity:1;fill-rule:nonzero;stroke:none;stroke-width:0.1;opacity:1"
       id="path334" />
    <path
       d="m 154.394,110.082 c 0.004,-0.151 -0.702,-0.291 -1.576,-0.312 -0.874,-0.021 -1.585,0.086 -1.589,0.238 -0.003,0.152 0.703,0.291 1.577,0.312 0.874,0.02 1.585,-0.086 1.588,-0.238"
       style="fill:#33535f;fill-opacity:1;fill-rule:nonzero;stroke:none;stroke-width:0.1;opacity:1"
       id="path336" />
    <path
       d="m 160.724,110.231 c 0.003,-0.152 -0.702,-0.292 -1.576,-0.312 -0.874,-0.021 -1.585,0.086 -1.589,0.238 -0.003,0.151 0.702,0.291 1.576,0.312 0.874,0.02 1.586,-0.086 1.589,-0.238"
       style="fill:#33535f;fill-opacity:1;fill-rule:nonzero;stroke:none;stroke-width:0.1;opacity:1"
       id="path338" />
    <path
       d="m 167.054,110.38 c 0.003,-0.152 -0.702,-0.292 -1.576,-0.312 -0.875,-0.021 -1.585,0.086 -1.589,0.238 -0.004,0.151 0.702,0.291 1.576,0.311 0.874,0.021 1.585,-0.085 1.589,-0.237"
       style="fill:#33535f;fill-opacity:1;fill-rule:nonzero;stroke:none;stroke-width:0.1;opacity:1"
       id="path340" />
    <path
       d="m 173.383,110.529 c 0.004,-0.152 -0.702,-0.292 -1.575,-0.312 -0.874,-0.021 -1.586,0.086 -1.589,0.237 -0.004,0.152 0.701,0.291 1.575,0.312 0.874,0.02 1.586,-0.086 1.589,-0.237"
       style="fill:#33535f;fill-opacity:1;fill-rule:nonzero;stroke:none;stroke-width:0.1;opacity:1"
       id="path342" />
    <path
       d="m 179.713,110.677 c 0.004,-0.151 -0.702,-0.291 -1.576,-0.311 -0.874,-0.021 -1.585,0.085 -1.589,0.237 -0.004,0.152 0.702,0.291 1.576,0.312 0.874,0.02 1.585,-0.086 1.589,-0.238"
       style="fill:#33535f;fill-opacity:1;fill-rule:nonzero;stroke:none;stroke-width:0.1;opacity:1"
       id="path344" />
    <path
       d="m 186.042,110.826 c 0.004,-0.152 -0.702,-0.291 -1.575,-0.311 -0.874,-0.021 -1.586,0.085 -1.589,0.237 -0.004,0.151 0.702,0.291 1.576,0.312 0.874,0.02 1.585,-0.086 1.588,-0.238"
       style="fill:#33535f;fill-opacity:1;fill-rule:nonzero;stroke:none;stroke-width:0.1;opacity:1"
       id="path346" />
    <path
       d="m 192.372,110.975 c 0.004,-0.152 -0.702,-0.292 -1.576,-0.312 -0.874,-0.021 -1.585,0.086 -1.589,0.237 -0.003,0.152 0.702,0.292 1.577,0.312 0.873,0.021 1.585,-0.085 1.588,-0.237"
       style="fill:#33535f;fill-opacity:1;fill-rule:nonzero;stroke:none;stroke-width:0.1;opacity:1"
       id="path348" />
    <path
       d="m 198.702,111.124 c 0.004,-0.152 -0.702,-0.292 -1.576,-0.312 -0.874,-0.021 -1.586,0.085 -1.589,0.237 -0.003,0.152 0.702,0.292 1.576,0.312 0.874,0.021 1.585,-0.086 1.589,-0.237"
       style="fill:#33535f;fill-opacity:1;fill-rule:nonzero;stroke:none;stroke-width:0.1;opacity:1"
       id="path350" />
    <path
       d="m 198.691,105.387 c -0.151,0.015 -0.204,0.732 -0.119,1.602 0.086,0.87 0.277,1.563 0.428,1.548 0.151,-0.015 0.205,-0.732 0.119,-1.602 -0.085,-0.87 -0.277,-1.563 -0.428,-1.548"
       style="fill:#33535f;fill-opacity:1;fill-rule:nonzero;stroke:none;stroke-width:0.1;opacity:1"
       id="path352" />
    <path
       d="m 198.073,99.0852 c -0.151,0.0148 -0.204,0.7328 -0.119,1.6018 0.085,0.87 0.277,1.564 0.428,1.549 0.151,-0.015 0.204,-0.732 0.119,-1.602 -0.086,-0.8699 -0.277,-1.5629 -0.428,-1.5488"
       style="fill:#33535f;fill-opacity:1;fill-rule:nonzero;stroke:none;stroke-width:0.1;opacity:1"
       id="path354" />
    <path
       d="m 197.455,92.7852 c -0.151,0.0136 -0.205,0.7308 -0.119,1.6019 0.085,0.8699 0.277,1.5629 0.428,1.5481 0.151,-0.0153 0.204,-0.7321 0.119,-1.602 -0.086,-0.8703 -0.277,-1.5641 -0.428,-1.548"
       style="fill:#33535f;fill-opacity:1;fill-rule:nonzero;stroke:none;stroke-width:0.1;opacity:1"
       id="path356" />
    <path
       d="m 196.836,86.4832 c -0.151,0.0148 -0.204,0.7316 -0.118,1.602 0.085,0.8699 0.277,1.564 0.428,1.5488 0.151,-0.0149 0.204,-0.732 0.119,-1.602 -0.086,-0.8699 -0.277,-1.5629 -0.429,-1.5488"
       style="fill:#33535f;fill-opacity:1;fill-rule:nonzero;stroke:none;stroke-width:0.1;opacity:1"
       id="path358" />
    <path
       d="m 196.218,80.182 c -0.151,0.0149 -0.204,0.7321 -0.118,1.602 0.085,0.8699 0.276,1.564 0.427,1.5492 0.151,-0.0152 0.205,-0.7332 0.119,-1.6031 -0.085,-0.8692 -0.277,-1.5629 -0.428,-1.5481"
       style="fill:#33535f;fill-opacity:1;fill-rule:nonzero;stroke:none;stroke-width:0.1;opacity:1"
       id="path360" />
    <path
       d="m 195.6,73.8809 c -0.151,0.0152 -0.204,0.732 -0.119,1.6023 0.085,0.8699 0.277,1.5629 0.428,1.5488 0.151,-0.016 0.204,-0.732 0.119,-1.6031 -0.085,-0.8699 -0.277,-1.5629 -0.428,-1.548"
       style="fill:#33535f;fill-opacity:1;fill-rule:nonzero;stroke:none;stroke-width:0.1;opacity:1"
       id="path362" />
    <path
       d="m 194.982,67.5801 c -0.151,0.0148 -0.204,0.732 -0.119,1.6019 0.085,0.87 0.277,1.5629 0.428,1.5481 0.151,-0.0141 0.204,-0.7321 0.119,-1.602 -0.085,-0.8703 -0.277,-1.5633 -0.428,-1.548"
       style="fill:#33535f;fill-opacity:1;fill-rule:nonzero;stroke:none;stroke-width:0.1;opacity:1"
       id="path364" />
    <path
       d="m 194.364,61.2789 c -0.151,0.0152 -0.204,0.732 -0.119,1.602 0.085,0.8703 0.277,1.5632 0.428,1.548 0.151,-0.0148 0.204,-0.732 0.119,-1.6019 -0.086,-0.87 -0.277,-1.5629 -0.428,-1.5481"
       style="fill:#33535f;fill-opacity:1;fill-rule:nonzero;stroke:none;stroke-width:0.1;opacity:1"
       id="path366" />
    <path
       d="m 193.746,54.977 c -0.152,0.016 -0.205,0.7332 -0.12,1.6019 0.086,0.8711 0.277,1.5641 0.429,1.5492 0.151,-0.0152 0.204,-0.732 0.118,-1.6019 -0.085,-0.8703 -0.277,-1.5633 -0.427,-1.5492"
       style="fill:#33535f;fill-opacity:1;fill-rule:nonzero;stroke:none;stroke-width:0.1;opacity:1"
       id="path368" />
    <path
       d="m 193.127,48.677 c -0.151,0.014 -0.204,0.732 -0.119,1.6011 0.086,0.8711 0.277,1.5641 0.428,1.5489 0.151,-0.0149 0.205,-0.7321 0.119,-1.602 -0.085,-0.8699 -0.277,-1.5641 -0.428,-1.548"
       style="fill:#33535f;fill-opacity:1;fill-rule:nonzero;stroke:none;stroke-width:0.1;opacity:1"
       id="path370" />
    <path
       d="m 192.509,42.375 c -0.151,0.0148 -0.204,0.732 -0.119,1.602 0.086,0.871 0.277,1.564 0.428,1.5492 0.151,-0.0153 0.204,-0.7321 0.119,-1.6024 -0.085,-0.8699 -0.277,-1.5629 -0.428,-1.5488"
       style="fill:#33535f;fill-opacity:1;fill-rule:nonzero;stroke:none;stroke-width:0.1;opacity:1"
       id="path372" />
    <path
       d="m 191.891,36.0738 c -0.151,0.0153 -0.205,0.7332 -0.119,1.6024 0.085,0.8699 0.277,1.5636 0.428,1.5488 0.151,-0.0148 0.204,-0.732 0.119,-1.6031 -0.086,-0.8688 -0.277,-1.5629 -0.428,-1.5481"
       style="fill:#33535f;fill-opacity:1;fill-rule:nonzero;stroke:none;stroke-width:0.1;opacity:1"
       id="path374" />
    <path
       d="m 191.272,29.773 c -0.15,0.0149 -0.204,0.7321 -0.118,1.602 0.085,0.8699 0.277,1.5629 0.427,1.5488 0.151,-0.0148 0.205,-0.7316 0.12,-1.6027 -0.086,-0.8691 -0.277,-1.5633 -0.429,-1.5481"
       style="fill:#33535f;fill-opacity:1;fill-rule:nonzero;stroke:none;stroke-width:0.1;opacity:1"
       id="path376" />
    <path
       d="m 190.654,23.4719 c -0.151,0.0152 -0.204,0.732 -0.118,1.6019 0.085,0.8703 0.276,1.5641 0.427,1.5481 0.151,-0.0137 0.205,-0.7321 0.119,-1.602 -0.085,-0.8699 -0.277,-1.5629 -0.428,-1.548"
       style="fill:#33535f;fill-opacity:1;fill-rule:nonzero;stroke:none;stroke-width:0.1;opacity:1"
       id="path378" />
    <path
       d="m 190.036,17.1711 c -0.151,0.0148 -0.204,0.732 -0.119,1.6019 0.085,0.87 0.277,1.5629 0.428,1.5481 0.151,-0.0141 0.204,-0.732 0.119,-1.602 -0.085,-0.8703 -0.277,-1.5632 -0.428,-1.548"
       style="fill:#33535f;fill-opacity:1;fill-rule:nonzero;stroke:none;stroke-width:0.1;opacity:1"
       id="path380" />
    <path
       d="m 189.708,13.832 c -0.15,0.0149 -0.269,0.0692 -0.264,0.1211 0.005,0.052 0.132,0.0821 0.283,0.0668 0.151,-0.0148 0.27,-0.0679 0.264,-0.1207 -0.005,-0.0512 -0.132,-0.082 -0.283,-0.0672"
       style="fill:#33535f;fill-opacity:1;fill-rule:nonzero;stroke:none;stroke-width:0.1;opacity:1"
       id="path382" />
    <path
       d="m 191.809,105.015 c 0.098,-0.116 -0.867,-1.166 -2.155,-2.344 -1.288,-1.179 -2.418,-2.047 -2.526,-1.939 -0.106,0.107 0.858,1.157 2.155,2.345 1.297,1.187 2.428,2.055 2.526,1.938"
       style="fill:#17282f;fill-opacity:1;fill-rule:nonzero;stroke:none;stroke-width:0.1;opacity:1"
       id="path384" />
    <path
       d="m 194.078,103.799 c 0.062,-0.138 -1.52,-0.983 -3.533,-1.887 -2.013,-0.904 -3.695,-1.524 -3.757,-1.386 -0.062,0.138 1.519,0.983 3.532,1.887 2.013,0.904 3.695,1.524 3.758,1.386"
       style="fill:#17282f;fill-opacity:1;fill-rule:nonzero;stroke:none;stroke-width:0.1;opacity:1"
       id="path386" />
    <path
       d="m 127.276,175.479 c 0,0 -3.349,35.89 -9.301,51.602 l 1.186,0.892 -1.773,6.184 -22.2603,2.7 0.3426,-4.829 c -3.3359,-1.616 -6.134,-4.093 -7.6129,-7.236 -7.9738,-16.944 -4.0433,-36.719 -8.2949,-73.376 0,0 -4.9766,-17.191 0.168,-22.569 l 48.5635,11.319 -2.317,11.081 c 21.2,0.405 56.059,4.302 56.059,4.302 l -0.972,20.056 c 0,0 -52.084,-0.312 -53.788,-0.126"
       style="fill:#33535f;fill-opacity:1;fill-rule:nonzero;stroke:none;stroke-width:0.1;opacity:1"
       id="path388" />
    <path
       d="m 117.348,234.187 c 0.144,0.047 0.864,-1.754 1.608,-4.023 0.165,-0.577 0.405,-1.071 0.442,-1.692 0.014,-0.305 -0.1,-0.629 -0.284,-0.837 -0.181,-0.212 -0.399,-0.34 -0.602,-0.421 -0.84,-0.259 -1.318,-0.074 -1.321,-0.035 -0.019,0.102 0.524,0.09 1.159,0.388 0.305,0.167 0.59,0.468 0.543,0.885 -0.038,0.418 -0.291,0.976 -0.459,1.541 -0.744,2.269 -1.23,4.147 -1.086,4.194"
       style="fill:#dadbd8;fill-opacity:1;fill-rule:nonzero;stroke:none;stroke-width:0.1;opacity:1"
       id="path390" />
    <path
       d="m 122.658,207.463 c 0,-0.152 -8.952,-0.275 -19.991,-0.275 -11.0424,0 -19.9916,0.123 -19.9916,0.275 0,0.152 8.9492,0.275 19.9916,0.275 11.039,0 19.991,-0.123 19.991,-0.275"
       style="fill:#17282f;fill-opacity:1;fill-rule:nonzero;stroke:none;stroke-width:0.1;opacity:1"
       id="path392" />
    <path
       d="m 120.563,217.577 c 0,-0.152 -7.934,-0.275 -17.719,-0.275 -9.7889,0 -17.7213,0.123 -17.7213,0.275 0,0.151 7.9324,0.274 17.7213,0.274 9.785,0 17.719,-0.123 17.719,-0.274"
       style="fill:#17282f;fill-opacity:1;fill-rule:nonzero;stroke:none;stroke-width:0.1;opacity:1"
       id="path394" />
    <path
       d="m 117.646,226.473 c 0,-0.152 -6.563,-0.275 -14.657,-0.275 -8.0964,0 -14.6581,0.123 -14.6581,0.275 0,0.151 6.5617,0.274 14.6581,0.274 8.094,0 14.657,-0.123 14.657,-0.274"
       style="fill:#17282f;fill-opacity:1;fill-rule:nonzero;stroke:none;stroke-width:0.1;opacity:1"
       id="path396" />
    <path
       d="m 117.354,232.744 c 0,-0.152 -5.028,-0.274 -11.229,-0.274 -6.2035,0 -11.2309,0.122 -11.2309,0.274 0,0.152 5.0274,0.275 11.2309,0.275 6.201,0 11.229,-0.123 11.229,-0.275"
       style="fill:#17282f;fill-opacity:1;fill-rule:nonzero;stroke:none;stroke-width:0.1;opacity:1"
       id="path398" />
    <path
       d="m 124.063,197.742 c 0,-0.152 -9.469,-0.275 -21.146,-0.275 -11.6822,0 -21.149,0.123 -21.149,0.275 0,0.151 9.4668,0.274 21.149,0.274 11.677,0 21.146,-0.123 21.146,-0.274"
       style="fill:#17282f;fill-opacity:1;fill-rule:nonzero;stroke:none;stroke-width:0.1;opacity:1"
       id="path400" />
    <path
       d="m 125.785,187.97 c 0,-0.152 -9.854,-0.275 -22.007,-0.275 -12.1577,0 -22.01,0.123 -22.01,0.275 0,0.151 9.8523,0.275 22.01,0.275 12.153,0 22.007,-0.124 22.007,-0.275"
       style="fill:#17282f;fill-opacity:1;fill-rule:nonzero;stroke:none;stroke-width:0.1;opacity:1"
       id="path402" />
    <path
       d="m 126.866,178.964 c 0,-0.152 -10.097,-0.275 -22.548,-0.275 -12.4559,0 -22.55,0.123 -22.55,0.275 0,0.151 10.0941,0.274 22.55,0.274 12.451,0 22.548,-0.123 22.548,-0.274"
       style="fill:#17282f;fill-opacity:1;fill-rule:nonzero;stroke:none;stroke-width:0.1;opacity:1"
       id="path404" />
    <path
       d="m 176.09,169.121 c 0,-0.152 -21.302,-0.275 -47.574,-0.275 -26.28,0 -47.5777,0.123 -47.5777,0.275 0,0.152 21.2977,0.275 47.5777,0.275 26.272,0 47.574,-0.123 47.574,-0.275"
       style="fill:#17282f;fill-opacity:1;fill-rule:nonzero;stroke:none;stroke-width:0.1;opacity:1"
       id="path406" />
    <path
       d="m 176.455,161.234 c 0,-0.152 -21.463,-0.275 -47.934,-0.275 -26.48,0 -47.9386,0.123 -47.9386,0.275 0,0.152 21.4586,0.275 47.9386,0.275 26.471,0 47.934,-0.123 47.934,-0.275"
       style="fill:#17282f;fill-opacity:1;fill-rule:nonzero;stroke:none;stroke-width:0.1;opacity:1"
       id="path408" />
    <path
       d="m 125.248,151.514 c 0,-0.152 -10.256,-0.275 -22.904,-0.275 -12.653,0 -22.9069,0.123 -22.9069,0.275 0,0.151 10.2539,0.274 22.9069,0.274 12.648,0 22.904,-0.123 22.904,-0.274"
       style="fill:#17282f;fill-opacity:1;fill-rule:nonzero;stroke:none;stroke-width:0.1;opacity:1"
       id="path410" />
    <path
       d="m 127.578,142.498 c 0,-0.152 -11.149,-0.275 -24.899,-0.275 -13.7552,0 -24.902,0.123 -24.902,0.275 0,0.151 11.1468,0.274 24.902,0.274 13.75,0 24.899,-0.123 24.899,-0.274"
       style="fill:#17282f;fill-opacity:1;fill-rule:nonzero;stroke:none;stroke-width:0.1;opacity:1"
       id="path412" />
    <path
       d="m 85.1719,140.107 c -0.152,0 -0.275,17.489 -0.275,39.057 0,21.577 0.123,39.062 0.275,39.062 0.1511,0 0.275,-17.485 0.275,-39.062 0,-21.568 -0.1239,-39.057 -0.275,-39.057"
       style="fill:#17282f;fill-opacity:1;fill-rule:nonzero;stroke:none;stroke-width:0.1;opacity:1"
       id="path414" />
    <path
       d="m 97.1902,141.072 c -0.1515,0 -0.2746,21.38 -0.2746,47.746 0,26.377 0.1231,47.752 0.2746,47.752 0.152,0 0.275,-21.375 0.275,-47.752 0,-26.366 -0.123,-47.746 -0.275,-47.746"
       style="fill:#17282f;fill-opacity:1;fill-rule:nonzero;stroke:none;stroke-width:0.1;opacity:1"
       id="path416" />
    <path
       d="m 110.46,142.498 c -0.151,0 -0.275,20.611 -0.275,46.031 0,25.428 0.124,46.035 0.275,46.035 0.152,0 0.275,-20.607 0.275,-46.035 0,-25.42 -0.123,-46.031 -0.275,-46.031"
       style="fill:#17282f;fill-opacity:1;fill-rule:nonzero;stroke:none;stroke-width:0.1;opacity:1"
       id="path418" />
    <path
       d="m 121.606,140.139 c -0.151,0 -0.275,16.178 -0.275,36.131 0,19.96 0.124,36.135 0.275,36.135 0.152,0 0.275,-16.175 0.275,-36.135 0,-19.953 -0.123,-36.131 -0.275,-36.131"
       style="fill:#17282f;fill-opacity:1;fill-rule:nonzero;stroke:none;stroke-width:0.1;opacity:1"
       id="path420" />
    <path
       d="m 133.415,175.524 c 0.077,-0.003 0.113,-1.346 0.111,-3.514 -0.002,-2.168 -0.043,-5.16 -0.122,-8.463 -0.079,-3.304 -0.181,-6.295 -0.282,-8.46 -0.102,-2.166 -0.203,-3.505 -0.279,-3.505 -0.075,-0.001 -0.112,1.339 -0.11,3.507 0.002,2.168 0.043,5.163 0.122,8.471 0.079,3.308 0.181,6.301 0.283,8.466 0.101,2.165 0.202,3.502 0.277,3.498"
       style="fill:#17282f;fill-opacity:1;fill-rule:nonzero;stroke:none;stroke-width:0.1;opacity:1"
       id="path422" />
    <path
       d="m 145.964,175.105 c 0.076,-0.004 0.115,-1.262 0.116,-3.293 10e-4,-2.03 -0.035,-4.833 -0.109,-7.927 -0.074,-3.096 -0.172,-5.897 -0.27,-7.925 -0.099,-2.028 -0.197,-3.283 -0.273,-3.283 -0.076,-0.001 -0.114,1.255 -0.116,3.285 -0.001,2.031 0.036,4.837 0.109,7.936 0.075,3.098 0.172,5.903 0.271,7.93 0.098,2.029 0.197,3.281 0.272,3.277"
       style="fill:#17282f;fill-opacity:1;fill-rule:nonzero;stroke:none;stroke-width:0.1;opacity:1"
       id="path424" />
    <path
       d="m 158.528,175.326 c 0.076,-0.003 0.115,-1.224 0.118,-3.192 0.003,-1.969 -0.031,-4.685 -0.103,-7.685 -0.071,-3.001 -0.168,-5.716 -0.264,-7.683 -0.097,-1.966 -0.195,-3.182 -0.271,-3.182 -0.075,-0.001 -0.115,1.216 -0.118,3.185 -0.002,1.968 0.032,4.688 0.104,7.693 0.071,3.004 0.167,5.722 0.264,7.688 0.096,1.966 0.194,3.18 0.27,3.176"
       style="fill:#17282f;fill-opacity:1;fill-rule:nonzero;stroke:none;stroke-width:0.1;opacity:1"
       id="path426" />
    <path
       d="m 171.095,175.682 c 0.076,-0.003 0.116,-1.187 0.121,-3.097 0.004,-1.91 -0.029,-4.546 -0.098,-7.457 -0.07,-2.911 -0.163,-5.546 -0.259,-7.454 -0.095,-1.907 -0.192,-3.088 -0.268,-3.088 -0.076,0 -0.116,1.181 -0.12,3.091 -0.004,1.91 0.028,4.549 0.097,7.464 0.07,2.915 0.164,5.553 0.259,7.46 0.096,1.908 0.192,3.085 0.268,3.081"
       style="fill:#17282f;fill-opacity:1;fill-rule:nonzero;stroke:none;stroke-width:0.1;opacity:1"
       id="path428" />
    <path
       d="m 122.918,171.007 c -0.128,0.067 0.556,1.535 1.88,3.008 1.316,1.481 2.699,2.324 2.78,2.205 0.095,-0.128 -1.1,-1.14 -2.371,-2.571 -1.279,-1.422 -2.151,-2.723 -2.289,-2.642"
       style="fill:#17282f;fill-opacity:1;fill-rule:nonzero;stroke:none;stroke-width:0.1;opacity:1"
       id="path430" />
    <path
       d="m 125.789,170.764 c -0.139,-0.027 -0.383,1.395 0.219,3.014 0.588,1.626 1.693,2.553 1.781,2.442 0.121,-0.109 -0.727,-1.13 -1.266,-2.631 -0.558,-1.492 -0.571,-2.82 -0.734,-2.825"
       style="fill:#17282f;fill-opacity:1;fill-rule:nonzero;stroke:none;stroke-width:0.1;opacity:1"
       id="path432" />
    <path
       d="m 176.959,155.655 c -0.151,-0.014 -0.663,4.284 -1.143,9.598 -0.48,5.315 -0.747,9.635 -0.595,9.648 0.151,0.014 0.662,-4.283 1.142,-9.599 0.48,-5.314 0.747,-9.634 0.596,-9.647"
       style="fill:#17282f;fill-opacity:1;fill-rule:nonzero;stroke:none;stroke-width:0.1;opacity:1"
       id="path434" />
    <path
       d="m 177.637,171.115 c 0.043,-0.071 -0.28,-0.267 -0.317,-0.769 -0.017,-0.237 0.045,-0.54 0.241,-0.73 0.185,-0.194 0.525,-0.239 0.842,-0.104 0.317,0.14 0.516,0.419 0.501,0.686 -0.004,0.273 -0.183,0.526 -0.368,0.675 -0.392,0.316 -0.756,0.214 -0.778,0.295 -0.055,0.045 0.367,0.358 0.989,0.031 0.282,-0.158 0.605,-0.472 0.662,-0.966 0.067,-0.504 -0.3,-1.026 -0.787,-1.225 -0.478,-0.219 -1.109,-0.13 -1.432,0.263 -0.321,0.379 -0.33,0.829 -0.253,1.143 0.187,0.678 0.704,0.773 0.7,0.701"
       style="fill:#17282f;fill-opacity:1;fill-rule:nonzero;stroke:none;stroke-width:0.1;opacity:1"
       id="path436" />
    <path
       d="m 127.211,175.578 c 0.001,0.005 0.086,0.003 0.251,-0.008 0.185,-0.014 0.426,-0.033 0.736,-0.057 0.648,-0.071 1.612,-0.131 2.872,-0.173 2.518,-0.107 6.217,-0.155 10.924,-0.116 9.413,0.065 22.859,0.41 38.979,1.049 l 0.235,0.009 0.012,-0.236 c 0.312,-6.23 0.653,-13.038 1.011,-20.178 l 0.012,-0.227 -0.209,-0.04 c -2.562,-0.485 -5.144,-0.682 -7.796,-0.953 -2.649,-0.23 -5.347,-0.465 -8.087,-0.702 -5.48,-0.447 -11.131,-0.866 -16.888,-1.275 -7.24,-0.488 -14.31,-0.966 -21.134,-1.426 l -0.017,-0.001 -0.018,0.001 c -6.126,0.395 -12.081,2.593 -16.237,6.631 -2.1,1.973 -3.671,4.399 -4.716,6.931 -1.071,2.529 -1.746,5.118 -2.368,7.623 -2.47,10.041 -4.025,19.107 -5.2437,26.667 -0.6035,3.781 -1.1113,7.19 -1.548,10.175 -0.4165,2.983 -0.8833,5.54 -0.8829,7.667 -0.03,2.122 0.4274,3.758 0.9825,4.719 0.5504,0.969 1.0187,1.334 1.0187,1.334 0.0313,-0.024 -0.4191,-0.411 -0.932,-1.38 -0.5192,-0.961 -0.9383,-2.572 -0.8797,-4.671 0.0281,-2.099 0.5207,-4.646 0.9644,-7.628 0.4762,-2.982 1.0196,-6.383 1.6227,-10.16 1.265,-7.547 2.859,-16.597 5.354,-26.609 0.629,-2.498 1.307,-5.063 2.366,-7.544 1.035,-2.486 2.562,-4.829 4.616,-6.754 4.059,-3.93 9.891,-6.081 15.918,-6.463 h -0.034 c 6.822,0.463 13.891,0.944 21.129,1.437 5.754,0.431 11.402,0.855 16.883,1.267 2.738,0.235 5.434,0.466 8.08,0.694 2.633,0.263 5.264,0.467 7.72,0.927 l -0.198,-0.266 c -0.341,7.141 -0.667,13.95 -0.964,20.181 l 0.247,-0.226 c -16.127,-0.592 -29.578,-0.868 -38.998,-0.852 -4.709,0.002 -8.412,0.095 -10.932,0.248 -1.261,0.066 -2.225,0.149 -2.872,0.245 -0.309,0.04 -0.549,0.071 -0.733,0.095 -0.164,0.023 -0.247,0.038 -0.246,0.045"
       style="fill:#17282f;fill-opacity:1;fill-rule:nonzero;stroke:none;stroke-width:0.1;opacity:1"
       id="path438" />
    <path
       d="m 127.211,175.578 c -0.036,-0.01 -0.217,0.549 -0.512,1.569 -0.298,1.019 -0.698,2.502 -1.172,4.339 -0.952,3.675 -2.152,8.779 -3.428,14.423 -1.277,5.647 -2.456,10.75 -3.335,14.438 -0.42,1.772 -0.768,3.243 -1.036,4.371 -0.238,1.033 -0.353,1.61 -0.316,1.619 0.037,0.011 0.221,-0.548 0.523,-1.565 0.306,-1.017 0.716,-2.497 1.206,-4.33 0.976,-3.668 2.216,-8.764 3.493,-14.411 1.267,-5.597 2.412,-10.661 3.27,-14.453 0.406,-1.775 0.743,-3.249 1.002,-4.378 0.231,-1.036 0.342,-1.613 0.305,-1.622"
       style="fill:#17282f;fill-opacity:1;fill-rule:nonzero;stroke:none;stroke-width:0.1;opacity:1"
       id="path440" />
    <path
       d="m 117.412,233.77 c 0.037,-0.007 -0.001,-0.4 -0.103,-1.105 -0.102,-0.705 -0.266,-1.721 -0.481,-2.975 -0.13,-0.631 -0.174,-1.299 -0.421,-2.074 -0.128,-0.372 -0.41,-0.814 -0.897,-0.971 -0.475,-0.15 -0.934,-0.04 -1.339,0.041 -1.653,0.339 -3.455,0.779 -5.33,1.292 -3.752,1.031 -7.094,2.114 -9.5238,2.861 -1.1203,0.35 -2.0785,0.651 -2.8734,0.899 -0.6778,0.215 -1.0485,0.352 -1.0391,0.388 0.0098,0.037 0.3988,-0.029 1.0953,-0.181 0.6953,-0.155 1.6961,-0.402 2.9254,-0.733 2.4616,-0.653 5.8246,-1.677 9.5596,-2.704 1.868,-0.511 3.656,-0.964 5.291,-1.327 0.406,-0.094 0.788,-0.169 1.086,-0.076 0.295,0.087 0.497,0.354 0.619,0.673 0.228,0.645 0.317,1.378 0.465,1.986 0.264,1.244 0.487,2.249 0.653,2.941 0.166,0.693 0.276,1.072 0.313,1.065"
       style="fill:#17282f;fill-opacity:1;fill-rule:nonzero;stroke:none;stroke-width:0.1;opacity:1"
       id="path442" />
    <path
       d="M 99.9145,95.3289 106.901,0.455859 109.826,1.13789 108.74,93.327 99.9145,95.3289"
       style="fill:#000000;fill-opacity:1;fill-rule:nonzero;stroke:none;stroke-width:0.1;opacity:1"
       id="path444" />
    <path
       d="M 70.293,92.0301 49.0652,0.569922 h 3.8391 L 83.2934,92.0301 H 70.293"
       style="fill:#000000;fill-opacity:1;fill-rule:nonzero;stroke:none;stroke-width:0.1;opacity:1"
       id="path446" />
    <path
       d="m 126.447,92.0301 28.96,-91.460178 h 3.103 L 135.497,92.0301 h -9.05"
       style="fill:#000000;fill-opacity:1;fill-rule:nonzero;stroke:none;stroke-width:0.1;opacity:1"
       id="path448" />
    <path
       d="M 130.326,85.8859 65.4246,43.4809 v -2.327 l 66.7114,44.732 h -1.81"
       style="fill:#000000;fill-opacity:1;fill-rule:nonzero;stroke:none;stroke-width:0.1;opacity:1"
       id="path450" />
    <path
       d="M 75.2504,85.8859 145.581,38.568 v 3.6199 l -68.2619,45.766 -2.0687,-2.068"
       style="fill:#000000;fill-opacity:1;fill-rule:nonzero;stroke:none;stroke-width:0.1;opacity:1"
       id="path452" />
    <path
       d="m 60.5961,90.4559 83.6209,1.516 c 3.16,0.0582 5.581,2.8301 5.212,5.9679 -0.32,2.7262 -2.651,4.7662 -5.395,4.7232 l -84.807,-1.364 1.3691,-10.8431"
       style="fill:#f03d5f;fill-opacity:1;fill-rule:nonzero;stroke:none;stroke-width:0.1;opacity:1"
       id="path454" />
    <path
       d="m 60.5961,90.4559 -4e-4,0.0043 -1.3687,10.8388 84.807,1.364 c 0.029,0 0.058,0 0.087,0 2.706,0 4.992,-2.026 5.308,-4.7232 0.025,-0.2136 0.037,-0.4269 0.037,-0.6367 -0.002,-2.6722 -2.001,-4.9461 -4.656,-5.2883 -0.194,-0.025 -0.392,-0.0386 -0.593,-0.0429 l -3.609,-0.0649 -5.057,-0.0922 -8.984,-0.1628 -17.803,-0.3231 -8.544,-0.1551 -17.3153,-0.3136 -12.9375,-0.234 -9.3711,-0.1703"
       style="fill:#eb038d;fill-opacity:1;fill-rule:nonzero;stroke:none;stroke-width:0.1;opacity:1"
       id="path456" />
    <path
       d="m 52.0777,155.096 8.4336,-64.6401 65.9357,1.5742 -0.169,39.2589 c 0.09,6.53 -5.491,11.702 -11.996,11.116 l -50.28,-4.535 -6.6172,68.512 -6.6813,0.565 c -2.9965,0.253 -5.4551,-2.339 -5.0437,-5.318 l 6.4179,-46.533"
       style="fill:#eb038d;fill-opacity:1;fill-rule:nonzero;stroke:none;stroke-width:0.1;opacity:1"
       id="path458" />
  </g>
</svg>
